<svg id="Calque_1" data-name="Calque 1" xmlns="http://www.w3.org/2000/svg" viewBox="0 0 1000 1000"><defs><style>.cls-1{fill:#3f3f3f;}.cls-2{fill:none;stroke:#fff;stroke-miterlimit:10;stroke-width:179px;}.cls-3{fill:#fff;}.cls-4{fill:#390662;}.cls-5{fill:#00b3cd;}.cls-6{fill:#ef67a6;}.cls-7{fill:#ed0390;}.cls-8{fill:#893c98;}</style></defs><rect class="cls-1" width="1000" height="1000"/><path class="cls-2" d="M178.14,409.44q28.59-17.7,44.42-19.8,24.6-7.51,41.6-2.45,29.93,11.4,49.12,42.42l3,4.78q21.38,34.55,3.13,65.12Q313.1,508.81,295,520l-19.08,10.51q-7.76,4.8-3.83,11.14l1.37,2.73,8.44,12.77q5.63,9.08,3.3,15-3.27,6.79-22,28.48-5.21,7-8.64,9.14l-.79.49q-5.56,3.45-14.44-7.75-8.22-8-30.57-44.14l-50.67-77.86-2.57-4.15Q138.58,449,142.56,438.61q1.73-7.89,23-21.08Zm108.57,46q-8.19.94-11.95,3.28l-1.41.87q-7,4.32-5.06,13.53l1.12,2.34.24.39q7.62,12.3,37.63,7.92l1-.63q2.68-2.83,4-18.32,0-14.12-4.47-21.4-5-8.07-13.92-2.54l-1.18.73Q285.41,446.21,286.71,455.48ZM338.32,356l3-.39,12.26-2.87q9.36-2,10.88,5.16.84,1.81,11.88,49.74l9.29,36.39c.39.61.71.88.95.83q25.91-8.36,39.58-11.26,5-1.06,7.24,2.58,5.25,10.08,9.25,28.93l.81,5-.25.05.3.19q.72,7.32-4.64,8.46l-1.72.37q-71.28,14.15-83.05,15.1-5-.48-7.1-10.33l-3.93-18.48-1.18-8-3.41-16,.19-.3-.3-.19v-1.28l-1.95-9.12q-10.73-50.43-11.69-67,1-4.59,12.9-7.12Zm162.05-24.35,1.26-.14c2.12-.24,6.32.25,12.57,1.45q8.09-3.74,11.65-4.13l1.25-.14q6.2-.69,9.34,6,10.08,16.11,33.7,59.55l28.75,52.51a22.82,22.82,0,0,1,1.92,5.93v.13q.39,3.5-7.68,7.31-4.93,2.31-18,5.29l-4.44.49q-7.81-.15-7.95-1.4-4.73-3.79-17-29.74l-7-14.36-13.22,11-.38,0-15.81-7.81-.19,0q-7.5,33.51-12,45.29c-1.36,2.93-2.88,4.5-4.55,4.68a14.59,14.59,0,0,1-4.72,1.41l-2.5.28q-6,.66-19.59-.69-9.81-2.15-10.21-5.77v-.13q-.56-5,8-31,16.92-61.17,29.15-98.95,2.22-5.76,4.34-6C497,332.56,498.11,332.18,500.37,331.68Zm-.65,55.88.08.75q.72,6.57,15.94,16.35,6.51,4,7.46,3.87a103.84,103.84,0,0,0,14.85-12.92q4.58-5.58,4-10.77l-.17-1.5q-.63-5.76-7.82-7.12a15.45,15.45,0,0,0-4.31-.09l-.76.08a14.41,14.41,0,0,0-8.51,4.36l-.19,0q-6.64-2.8-11.09-2.32a11.78,11.78,0,0,0-8.91,5.93A7,7,0,0,0,499.72,387.56Zm78.81-65.76,93-10q12.76-1.37,13.19,2.57a16,16,0,0,1,2.25,7.36,88.58,88.58,0,0,1-1.13,27.8q-2,3.89-8,4.53l-10.74.84,0-.25-.29.28-1.15-.12-15.15,1-3.44,1,11.53,82.47q1.31,12.09-2.45,12.49-7.82,5.08-23.9,6.82l-.88.09q-11.58,1.24-12.36-5.95l-.77-4.79-8-87.49-1.22-.19-27.67,4.18q-8.77.26-9.22-3.88-4.92-10.49-6.54-25.45l0-.31q-1.2-11.15,5.75-11.9ZM449.85,651.06s-5.07,17.32-29,12.33S385,625.83,401.61,602.28s46-31.21,80.92-26.54,84.85,16.82,96.81,19.06,68,13.27,112.13-.93S769.22,549,792.39,493.51s33-107.93,34.67-115,12.8-70.83,13.36-75.22.56-10.47-2.33-14-3.27-3.08-11.59-3S796.32,288,796.32,288s-4.67.56-6.08,2.43-3.17,3.83-3.73,11.59-5.58,83.14-8.07,94.35-4,5.86-5.36,1.74-22.43-90.08-23.3-94.56-5.6-13.09-12.83-13.33-41.24,3.61-41.24,3.61-7.73,1.12-6.85,10,5.35,16.57,8.09,25.41,30.53,82.61,33.64,92.45,13.71,36.76,14.71,44,2.11,17.94-4.74,28.54-25.35,54.44-84,69S525,549.2,493,534.44s-83.72-30.46-121.1-12a100.33,100.33,0,0,0-56.25,89.71c0,34.57,16.82,56.25,34.2,67.65s58.49,24.48,97,0,24.86-78.68-3.17-79.24-34.77,15.14-33.83,27.1,4.67,16.38,9.78,20,13.7,6,19.56,5.74S446.58,652.55,449.85,651.06Z"/><g id="Rainvow"><g id="Rainbow"><path class="cls-2" d="M439.42,243.14s12.21-19.06,38.13-34.89,61.17-23.3,94.57-17.69,66.28,27.29,78,42.49l-1.49,7.22L636,237.78l-9.3.75L625,234.2s-14.06-12-26.86-15-22.21-7-42.38-5.17-44.09,12.84-52.69,20.94l-12.46,11.71-37.13,3.61Z"/><path class="cls-2" d="M381.86,253.17s22.3-64.23,95.56-98.62,149.83-8,183.44,16.2,63.26,63.62,73,101.71l-15.7,6.69-12,1.49L700,277.15s-10-42.11-55.07-75S542.21,166.26,515.55,174s-70.77,15.7-109.89,81.48l-4.74,10.08-17.69-6.84Z"/><path class="cls-2" d="M372.63,231.63s49.49-116.7,187.77-114.95S751.78,240.27,757,275.41s19.53-7.94,19.53-7.94S753.65,183.83,681.13,136,531.62,82.54,465.46,103.47,364.17,163.65,335,202.9V216L362,235Z"/><path class="cls-2" d="M439.42,243.14s12.21-19.06,38.13-34.89,61.17-23.3,94.57-17.69,66.28,27.29,78,42.49l-1.49,7.22L636,237.78l-9.3.75L625,234.2s-14.06-12-26.86-15-22.21-7-42.38-5.17-44.09,12.84-52.69,20.94l-12.46,11.71-37.13,3.61Z"/><path class="cls-2" d="M381.86,253.17s22.3-64.23,95.56-98.62,149.83-8,183.44,16.2,63.26,63.62,73,101.71l-15.7,6.69-12,1.49L700,277.15s-10-42.11-55.07-75S542.21,166.26,515.55,174s-70.77,15.7-109.89,81.48l-4.74,10.08-17.69-6.84Z"/><path class="cls-2" d="M372.63,231.63s49.49-116.7,187.77-114.95S751.78,240.27,757,275.41s19.53-7.94,19.53-7.94S753.65,183.83,681.13,136,531.62,82.54,465.46,103.47,364.17,163.65,335,202.9V216L362,235Z"/></g></g><path id="Heartstroke" class="cls-2" d="M256.52,259.59s4.36-22.31,25.29-32.15,40.87-7.35,54.08,11,7.22,45.48.74,64.42a345.64,345.64,0,0,1-17.69,43.11c-5.23,10.46-10.34,18.44-10.34,18.44S259.39,359,233,346.68s-42.86-23.55-43.61-47.85S208.68,247,256.52,259.59Z"/><path d="M799.44,787.49c.49-3.89,4.67-76.63-253.24-76.63s-245.67,64.48-245.67,64.48c.07,1.69.05,73.85,231.77,80.92C758.27,863.17,796.26,812.53,799.44,787.49Z"/><path class="cls-3" d="M770.06,783.76q-.1.69-.15,1.38l-.06.6c0,.17,0,.42,0,.51a2.64,2.64,0,0,0,0,.29c0,.46,0,.54,0,.77a1.17,1.17,0,0,0,0,.29s-.07,0-.07,0a7.46,7.46,0,0,1-1-1.22,33.76,33.76,0,0,0-5.45-5.32,76.1,76.1,0,0,0-9.48-6.06c-.89-.5-1.91-.94-2.85-1.43s-1.86-1-2.91-1.41L745,770.85c-1-.45-2-.91-3.15-1.3a204.29,204.29,0,0,0-28-8.58c-1.24-.29-2.44-.63-3.7-.88l-3.79-.78c-2.53-.5-5-1.07-7.6-1.46L691,756.64c-2.56-.46-5.21-.75-7.82-1.14s-5.23-.8-7.83-1.29-5.27-.86-7.9-1.37c-1.31-.26-2.63-.5-3.94-.8l-2-.42a8.87,8.87,0,0,1-2-.56,8.36,8.36,0,0,1-1.88-1.28c-.62-.54-1.22-1.16-1.83-1.75a9.53,9.53,0,0,0-3.8-2.59c-5.29-1.56-10.68-2.91-16.08-4.24-2.71-.65-5.41-1.35-8.13-2s-5.47-1.15-8.21-1.73-5.48-1.16-8.23-1.69-5.53-1-8.3-1.47L594.81,733l-4.17-.67-4.19-.57c-5.58-.77-11.17-1.47-16.77-2.19l-16.87-1.83a41.87,41.87,0,0,0-8.45-.11c-2.83.28-5.64.78-8.46,1.21l-8.44,1.37c-2.81.45-5.62.91-8.41,1.47-5.6,1.06-11.18,2.1-16.75,3.23l-16.6,3.62c-11,2.48-21.94,5.18-32.69,7.94-5.41,1.33-10.71,2.79-16,4.2s-10.51,2.92-15.72,4.4c-2.62.72-5.16,1.54-7.7,2.35L406,759.82l-7.41,2.6-3.7,1.26-3.58,1.37a211.36,211.36,0,0,0-26.51,11.82c-2.06,1-3.78,2.17-5.6,3.24l-1.34.81c-.44.27-.81.56-1.21.83l-2.37,1.65-.59.4c-.19.14-.34.28-.51.42l-1,.81-1,.8a7.38,7.38,0,0,0-.91.79c-.5.52-1,1-1.53,1.51a3.86,3.86,0,0,0-.35.36l-.26.35-.5.67a7.8,7.8,0,0,0-.49.63c-.07.19-.14.37-.22.54l-.24.49c-.05.14,0,.24,0,.35s0,.19.05.26.24.06.34.06a.83.83,0,0,0,.38-.07,3.72,3.72,0,0,0,.65-.36l.3-.24a5.58,5.58,0,0,0,.46-.39l.43-.43a2.11,2.11,0,0,0,.19-.23l.23-.28a7,7,0,0,0,1-1.41l.1-.2.13-.24.26-.5c.17-.33.31-.68.45-1l.19-.54.24-.66c.16-.45.29-.9.41-1.35l.41-1.57c.13-.56.24-1.13.33-1.7s.25-1.4.33-2.11l.11-1.12c0-.46.1-.91.13-1.37s0-.91.06-1.36c0-.62,0-1.25,0-1.88l-.06-.94-.13-1.36c-.05-.51-.12-1-.2-1.52l-.21-1.34c-.12-.75-.25-1.49-.4-2.23l.89,7.88-.08-.11,0,0a1.06,1.06,0,0,1,0-.14l-.05-.33c-.08-.44-.17-.89-.27-1.32-.15-.58-.32-1.16-.52-1.73a11.59,11.59,0,0,0-1-2.06c-.16-.25-.35-.52-.52-.74s-.3-.35-.46-.51a6.49,6.49,0,0,0-.49-.45c-.13-.09-.27-.19-.42-.28-1.14-.68-2.11-.51-2.63.11-1.21,1.22-1.14,4,0,7.14a37.61,37.61,0,0,0,5.81,10.3c1.25,1.84,2.9,3.57,4.45,5.41.74.93,1.67,1.79,2.53,2.69l2.67,2.7a176.71,176.71,0,0,0,26,20.14l3.62,2.39,3.73,2.27c2.51,1.51,5,3.08,7.58,4.54,5.18,2.86,10.38,5.86,15.78,8.52l8.33-43.26c3.68.57,7.33,1.15,11.13,1.58s7.47,1.11,11.26,1.78c1.89.37,3.76.9,5.64,1.37s3.76.91,5.66,1.31c3.81.76,7.7,1.28,11.57,1.74,1.95.21,3.88.43,5.84.59l5.91.35,11.83.67c4,.2,7.94.5,11.9,1l3,.43,3,.52c2,.35,4,.75,6,1.22a97.39,97.39,0,0,1,11.94,3.69A130.22,130.22,0,0,1,544.43,810c1,.47,2,1,3,1.53a14.25,14.25,0,0,1,1.53.82,4.92,4.92,0,0,1,.75.76c.13.16.25.37.38.55a5.44,5.44,0,0,1,.37.61c2,3.39,3.92,11.83,5.88,20.9,1,4.29,2,8.9,3,12.41l.76,2.49c.26.78.52,1.38.78,2.07a13.73,13.73,0,0,0,1.55,3.13A3.83,3.83,0,0,0,564,856.7a4.3,4.3,0,0,0,1.59.14q1.59,0,3.18-.06a77.21,77.21,0,0,0,12.7-1.51q3.18-.63,6.33-1.48c2.11-.55,4.21-1.21,6.31-1.95,4.19-1.47,8.36-3.2,12.5-4.94s8.25-3.71,12.34-5.42,8.16-3.38,12.22-4.8,8.12-2.55,12.15-3.58l24.12-5.23c15.91-3.53,31.51-7.16,46.37-11.38,3.75-1,7.34-2.2,11-3.3,1.81-.56,3.53-1.23,5.3-1.83l2.63-.92,2.54-1A115.84,115.84,0,0,0,754,800.5c1.31-.85,2.64-1.7,3.91-2.56l1.77-1.33c.59-.44,1.2-.87,1.69-1.32L763,794c.53-.44.9-.91,1.37-1.35a34.12,34.12,0,0,0,2.37-2.6,15.89,15.89,0,0,0,2.48-4.39c.05-.14.09-.28.15-.42s0-.24.06-.36a1.63,1.63,0,0,1,.11-.31.51.51,0,0,1,.06-.25A3.74,3.74,0,0,0,770.06,783.76Zm58.75,7.46a80.17,80.17,0,0,1-2.38,11.85c-.29.93-.61,1.86-1,2.77s-.73,1.74-1.13,2.6-.78,1.74-1.21,2.55l-1.34,2.4a80,80,0,0,1-12.29,16.22c-2.23,2.15-4.48,4.4-6.77,6.23-1.15.94-2.3,2-3.45,2.8l-3.47,2.55c-1.16.88-2.32,1.63-3.48,2.38l-3.49,2.25c-2.32,1.39-4.65,2.69-7,4a179.54,179.54,0,0,1-27.64,11.86c-9.15,3.09-.12,1.18-9.15,3.09C727,868.72,734.19,832,716.43,832.47c-2.22.09-3.86-.51-6.08-.47s-11,6.66-13.25,6.64S690.23,841,688,841s-9,4.52-11.26,4.39c-4.41-.24-9.83.1-14.23-.78-2.2-.43-3.72-1.63-5.92-2.17s-4.49-1.13-6.68-1.82-.75-5-2.93-5.77-7,1.19-9.15.39c-4.33-1.53-28,16.32-32.29,15.07s-191.18-9.71-191.18-9.71l1.3,4s-14.54,3.47-20.48,7a69,69,0,0,0-13.72,11.28c-3.65,3.64-5.92-3.87-5.92-3.87a235,235,0,0,1-41.05-4.42l-5.37-1.22c-1.8-.43-3.6-.8-5.43-1.36-3.65-1.08-7.31-2.06-11.05-3.49a123.07,123.07,0,0,1-23-10.78,98.66,98.66,0,0,1-23.58-19.59,82.09,82.09,0,0,1-10.87-15.73L254,800.05c-.4-.81-.79-1.71-1.18-2.57l-1.13-2.64c-.36-.94-.72-1.93-1.07-2.91-.68-1.86-1.34-4.2-1.91-6.44-.29-1.3-.56-2.62-.8-3.94-.13-.8-.24-1.62-.35-2.43l-.07-.61,0-.28,0-.17-.11-.67.9,7.88c-.17-.82-.32-1.66-.45-2.49l-.23-1.61c-.1-.68-.18-1.37-.25-2l-.1-1c0-.38-.05-.64-.06-.87l-.08-1.47c0-1,0-2,0-3,0-.81.08-1.62.13-2.43s.11-1.63.19-2.43.15-1.45.24-2.19c.18-1.41.39-2.84.63-4.23s.51-2.53.81-3.79.61-2.54.94-3.63.7-2.27,1.07-3.39l.57-1.68c.19-.53.4-1,.6-1.53.41-1,.83-2,1.28-3l.68-1.49.34-.73.35-.67c.94-1.76,1.92-3.5,3-5.19.26-.44.52-.83.77-1.2l.79-1.12,1.6-2.22,1.64-2.18c.54-.67,1.07-1.29,1.61-1.92,1.09-1.26,2.19-2.51,3.3-3.73s2.17-2.16,3.27-3.23,2.21-2.11,3.29-3l3.21-2.62c1.07-.85,2.18-1.76,3.23-2.52l3.12-2.15,3.15-2.11c1-.66,2-1.21,3-1.81l3-1.74,1.52-.86c.51-.29,1-.5,1.47-.75q2.91-1.44,5.84-2.84c1-.5,1.91-.86,2.85-1.26l2.82-1.16,2.81-1.14c.47-.19.94-.39,1.4-.56l1.36-.47,5.45-1.86c.9-.3,1.82-.63,2.7-.89l2.64-.76c3.51-1,7.06-2,10.44-2.76a269.54,269.54,0,0,1,39.51-6.25l4.78-.46,4.72-.31c3.14-.2,6.29-.37,9.42-.53l9.3-.25c3.1-.08,6.19-.17,9.24-.13,6.12,0,12.24-.07,18.28.23l9.06.33c3,.07,6,.37,9,.55,6,.41,12,.82,17.9,1.48l8.89.9,4.44.46,4.42.53,17.61,2.19c5.84.85,11.67,1.6,17.49,2.39s11.61,1.62,17.39,2.42c2.9.39,5.79.85,8.67,1.07a51.23,51.23,0,0,0,8.67,0l17.38-1.51c5.81-.4,11.63-.78,17.46-1.24l4.37-.33,4.39-.26,8.78-.55,8.81-.62c3-.13,5.9-.32,8.85-.49s5.91-.33,8.88-.55,5.94-.28,8.92-.43l9-.44c3-.18,6-.18,9-.29a10.94,10.94,0,0,0,4.71-1.59c.81-.42,1.62-.87,2.42-1.25a9.73,9.73,0,0,1,2.37-.76,7.59,7.59,0,0,1,2.28,0l2.27.19c1.51.13,3,.3,4.53.44,3,.33,6,.67,9,1.12s6,1.08,9.05,1.68c12,2.49,24,5.83,36.15,9.46a244.42,244.42,0,0,1,36.6,14.08c1.52.68,3.06,1.52,4.59,2.32l4.6,2.44c1.52.8,3.07,1.8,4.6,2.69s3,1.81,4.58,2.82a132.79,132.79,0,0,1,18.13,14.13A88.4,88.4,0,0,1,821.11,756a70.29,70.29,0,0,1,5.94,14.42c.36,1.38.7,2.78,1,4.17s.53,3,.73,4.5.33,3.14.36,5l0,1.35c0,.44,0,1.06,0,1.58l-.08,1.67C829,789.58,828.92,790.4,828.81,791.22Z"/><path class="cls-4" d="M721.13,494.29l-48.84,43.76-53.83,8s-69.64,0-73.69-1-69.16-28.86-69.16-28.86l-117.3-189,17.9-46.53,216.34-37.37L677,257Z"/><path class="cls-3" d="M326.79,847.42s-12.33,16.55-2.86,46.09S354.7,950,415.19,970.14s172.27,14.7,198,8.48,91-14.21,131.62-58.81-4-92.2-4-92.2Z"/><path class="cls-4" d="M799.44,787.49c.49-3.89,4.67-76.63-253.24-76.63s-245.67,64.48-245.67,64.48c.07,1.69.05,73.85,231.77,80.92C758.27,863.17,796.26,812.53,799.44,787.49Z"/><path class="cls-4" d="M374.63,880.93s-2-33,56.4-39.12,249-4.6,249-4.6,55,15.25,53.83,39.21-34.46,57.34-120.52,71.79-149.6,6-186.23-7.72S372.27,896.63,374.63,880.93Z"/><path class="cls-5" d="M397.85,863.12h6.86c.65.08,1,.24,1,.49a30.8,30.8,0,0,0-2.29,5.22v2.29c0,1.66,1,3.74,3,6.21v.51l-.19.16v.17l-5.22.16h-5.73V878q3.77-2.07,3.77-7t-2.64-7.05l-.13-.64ZM400.3,853h.32a4.32,4.32,0,0,1,4.41,3.09v2.32q-1.84,2.77-3.44,2.77H400c-2,0-3.2-1.43-3.61-4.28Q397.32,853,400.3,853Z"/><path class="cls-5" d="M425.67,853.76l.19,1a24.38,24.38,0,0,1-.83,6.56q-2.94-2.79-5.06-2.79h-1.29c-2,.3-3,1.23-3,2.79a80.71,80.71,0,0,0,8.34,4.58q2.28,2.14,2.28,3.77v.64q0,5-5.73,9.82a7.65,7.65,0,0,1-2.93,1.13h-.19q-3.87,0-7.83-7.34-1.8-1.59-1.8-2.61a56.72,56.72,0,0,1,9.82-.51h.16v.32c-1.42,1.36-2.12,2.35-2.12,3v.16c.17,1.2.77,1.8,1.77,1.8h.67c1.74,0,2.61-1.85,2.61-5.57V870c0-1-1.63-1.63-4.89-1.8q-5.89-.78-5.9-5.57v-.33q0-4,5.74-7.34a3.89,3.89,0,0,1,2.12-.51h.65l2.63.83A15.33,15.33,0,0,0,425.67,853.76Z"/><path class="cls-5" d="M521.77,834.46H523q1,0,1.89,14.18L529,878.89q4.54,18.58,9.27,25.33c.62,0,1.26,1,1.89,3.09l-25.72,3.41-.31-1.14a28.07,28.07,0,0,0,5.73-17.65v-7.62h-7.31l-4.22-.44c-1,.29-1.51,1.19-1.51,2.71a15.58,15.58,0,0,0,5.73,12.22v.44l-1.51.76q-23-.51-23-2.27a62.88,62.88,0,0,0,11.1-20.36q5-15.06,5-27.54v-1.19q0-2.85-6.5-6.5c-1.26,0-1.89-.37-1.89-1.13Q497.63,839.32,521.77,834.46ZM514.46,859,509.11,875v.44h.75l8.45-.44v-.31A122.47,122.47,0,0,0,514.9,859Z"/><path class="cls-5" d="M558.12,837.54q2.7,0,17.58,4.23h1.58q3,0,8-4.23c.5,0,.76.4.76,1.2q-3.48,14.81-7.63,18.4a26.26,26.26,0,0,0-18.78-7.68q-12.17,0-14.18,7.68l-.38,1.52A74.4,74.4,0,0,0,552.38,882q6.68,10.34,10.34,10.33,7,0,9.2-10V882q0-4.86-7.69-10.34v-.44c.17-.75,1-1.13,2.65-1.13l20.35-.76.38.38v.38q-2,17.58-5.36,22.24-6,8.83-19.53,8.83l-4.23.31q-19.47,0-23-26l-.76-15.76q0-14.31,19.54-21.81Z"/><path class="cls-5" d="M593.26,857.9h16.07c1.52.17,2.27.55,2.27,1.13q-5.36,11-5.35,12.23v5.36q0,5.86,6.93,14.56v1.19l-.44.38v.38l-12.23.38H587.09v-.76q8.82-4.85,8.82-16.45t-6.18-16.51l-.31-1.51ZM599,834.14h.75q7.69,0,10.34,7.25v5.42q-4.35,6.5-8.07,6.49h-3.84q-7,0-8.45-10Q592,834.15,599,834.14Z"/><path class="cls-5" d="M651.41,839.12h.38l.38,1.89v3.47q0,16.44-1.51,16.45h-.38q-7.75-6.87-13.43-6.87-13,0-13,14.55,0,18.79,13.42,18.79,8.58,0,13.8-8.83h.38l.76,1.14v6.93q0,10-2.27,10L633,900.44q-9.07,0-18-16.89a43.17,43.17,0,0,1-1.51-10q0-17.45,3.85-20.73a40.47,40.47,0,0,1,16.45-11.09l1.51-.38H638l6.11,1.89C645.49,843.28,647.92,841.89,651.41,839.12Z"/><path class="cls-5" d="M432.94,907.09s9.76-2.61,9.76-14.67.8-29.06-2.29-33.78-6.68-9.9-6.68-9.9,7.34,1.63,9.49,1.63,10.39-2.36,11.35-3.32c0,0,4.25,18.55,5.94,23.55s4.11,12.2,4.11,12.2,3.69-20.61,4.25-24.25,2.8-17,2.8-18.78a5,5,0,0,0-2-4.49H481.2s9,.28,10.05.79c0,0-6.07,4.26-6.07,9.16v57.89s-.8,5.75,7,13.93c0,0-7.94.51-11.86.51h-13s9.39-7.57,9.39-16.91-.05-47.52-.05-47.52-5.23,22.43-6.35,27-3.09,17.9-6.54,22.29c0,0-5.33-17.94-6.4-20.84s-3.6-11.44-4.86-12.89c0,0-1.59,21.91-1.36,27.1s-1.49,7.57,5.56,10.7Z"/><path class="cls-5" d="M416.16,735.46l.6,3.35a84.85,84.85,0,0,1-2.83,22.69q-10.23-9.63-17.62-9.63h-4.47q-10.23,1.57-10.23,9.63,3.06,2.68,28.88,15.9,8,7.46,8,13.05v2.24q0,17.32-19.85,34-7.32,4-10.23,4h-.59q-13.44,0-27.17-25.52c-4.18-3.63-6.27-6.65-6.27-9q7.69-1.73,34-1.72h.6v1.12q-7.38,7.1-7.39,10.22v.6q.9,6.2,6.2,6.19h2.31q9,0,9-19.25v-1.72q0-5.3-17-6.26-20.37-2.7-20.37-19.26v-1.12q0-13.87,19.85-25.52a13.94,13.94,0,0,1,7.39-1.72h2.24l9.1,2.84Q404.23,740.53,416.16,735.46Z"/><path class="cls-5" d="M420.2,757.81h10.25q22.71,0,22.71,1.4c0,.7-1.08,1.16-3.26,1.4q-10.25,4.89-10.25,17v2.51l-.35.29,2.16,30.52h.35q9.72,0,11.64-2.16l7.11-8.85q1,0,1.75,20.91l-1,.7q-22.83.69-32.62,1.74h-4.25l-.7-.69v-.7q6.35-8.85,6.35-16.66V785.07q0-20.85-8.5-25.51c-.94-.39-1.4-.74-1.4-1Z"/><path class="cls-5" d="M505.07,766.43h.35q2,0,2.8,20.15v.35h-1.05q-6.18-7.74-13.1-7.75l-9.91-.4q-2.15,1.4-2.15,8.85v2.16l1.11,1q5.17,0,10.95-5.65a76.26,76.26,0,0,1,1.45,16.66v1.75h-.7q-9.72-4.26-11.41-4.25h-1a26.62,26.62,0,0,0-1.11,7.39v3.56c0,.73,2.25,1.22,6.76,1.45q13.46,0,13.45-3.2l4.6-4.6q1,2.1,1.05,7.45v9.55l-.7.7-37.22,1.05L469,823h-.4l-.3-.35h-.4l-4.61.76-.34-1.11q8.14-12.57,8.15-25.45a48.6,48.6,0,0,0-7.81-27.32l-.69-1.74h.35l34,2.79Q500.07,770.16,505.07,766.43Z"/><path class="cls-5" d="M555.49,763.15h.38q2.13,0,3,21.79v.38h-1.13q-6.68-8.37-14.17-8.38l-10.7-.44c-1.56,1-2.33,4.2-2.33,9.57v2.33l1.19,1.14q5.61,0,11.84-6.11a82.24,82.24,0,0,1,1.57,18v1.89h-.75q-10.51-4.61-12.34-4.6H531a28.82,28.82,0,0,0-1.2,8v3.84q0,1.2,7.3,1.57,14.55,0,14.55-3.46l5-5q1.14,2.26,1.14,8.06v10.33l-.76.76L516.77,824l-.32.38H516l-.31-.38h-.44l-5,.82-.38-1.2q8.82-13.61,8.82-27.51,0-16.7-8.44-29.54l-.75-1.89h.37l36.78,3Q550.07,767.18,555.49,763.15Z"/><path class="cls-5" d="M560.92,764.22q25.33,1.74,29.42,3.9,6.57,1.86,8.85,6,5.29,8.32,5.3,13.8v.76q0,8.33-22.66,14.15c-1,0-1.45.23-1.45.7q0,11.41,5.7,17.71v.35c-.15.69-1.1,1-2.85,1H567.68c-2.6,0-3.9-.35-3.9-1q5.64-2,5.65-12.06l.35-8.45v-17.7q0-7.57-9.56-18.47Zm19.17,28.71,1.39.7q11.31-2.57,11.3-9.55,0-5.94-7.74-7.11h-1.11q-3.55,0-3.55,9.2Z"/><path class="cls-5" d="M608.74,787.2h15.7c1.47.16,2.21.53,2.21,1.11q-5.24,10.71-5.23,11.94v5.23q0,5.73,6.77,14.22v1.17l-.43.37v.37l-11.94.37H602.7v-.74q8.63-4.74,8.62-16.07t-6-16.13l-.31-1.47Zm5.6-23.21h.74q7.51,0,10.09,7.08v5.29q-4.24,6.35-7.88,6.34h-3.75q-6.84,0-8.25-9.79Q607.51,764,614.34,764Z"/><path class="cls-5" d="M654.14,759.44q24,.46,24.05,2.45-5.3,8.26-5.3,12.4a82.14,82.14,0,0,0-1.4,16.25q0,24.53,4.6,28.72l2.86,3.55v.7l-16.31,2.79c-1.16,0-2.12-2.48-2.85-7.45q-3.56-9.68-12-27.26h-.41l-.7,13.11q0,8.09,4.66,11.7l1,1.46q0,1.27-23.76,2.79l-.35-.35v-.7q9.56-5.58,9.55-23,0-17.94-9.55-24.46l-1-1.4v-.35l2.45-.35h20.56q1,0,6,16,5.84,14,6.76,14.85l.35-7.8q0-26.38-10.25-31.86l-.35-.35v-1.11Z"/><path class="cls-5" d="M702,759.57q2.69,0,17.44,4.19H721q3,0,7.93-4.19c.5,0,.75.39.75,1.19q-3.44,14.68-7.56,18.25a26,26,0,0,0-18.62-7.63q-12.06,0-14.06,7.63l-.38,1.5a73.73,73.73,0,0,0,7.25,23.18q6.63,10.26,10.25,10.25,7,0,9.13-9.93v-.32q0-4.82-7.63-10.25V793c.17-.75,1-1.13,2.63-1.13l20.18-.75.38.38v.37q-2,17.45-5.32,22.06-5.93,8.76-19.37,8.75l-4.19.31q-19.3,0-22.81-25.74l-.75-15.63q0-14.19,19.38-21.62Z"/><path class="cls-3" d="M395.94,861.21h6.86c.65.08,1,.24,1,.49a30.8,30.8,0,0,0-2.29,5.22v2.29c0,1.66,1,3.74,3,6.21v.51l-.19.16v.17l-5.22.16H393.3v-.33q3.76-2.07,3.77-7T394.43,862l-.13-.64Zm2.45-10.14h.32a4.32,4.32,0,0,1,4.41,3.09v2.32q-1.85,2.78-3.44,2.77H398c-2,0-3.2-1.43-3.61-4.28Q395.41,851.07,398.39,851.07Z"/><path class="cls-3" d="M423.76,851.85l.19,1a24.38,24.38,0,0,1-.83,6.56c-2-1.86-3.65-2.8-5.06-2.8h-1.29c-2,.31-3,1.24-3,2.8a80.71,80.71,0,0,0,8.34,4.58c1.52,1.43,2.28,2.69,2.28,3.76v.65q0,5-5.73,9.82a7.65,7.65,0,0,1-2.93,1.13h-.19q-3.87,0-7.83-7.34-1.8-1.59-1.8-2.61a56.72,56.72,0,0,1,9.82-.51h.16v.32c-1.42,1.36-2.12,2.35-2.12,3v.16c.17,1.2.77,1.8,1.77,1.8h.67c1.74,0,2.61-1.85,2.61-5.57v-.48c0-1-1.63-1.63-4.89-1.8-3.93-.53-5.9-2.38-5.9-5.57v-.33q0-4,5.74-7.34a3.89,3.89,0,0,1,2.12-.51h.65l2.63.83A15.33,15.33,0,0,0,423.76,851.85Z"/><path class="cls-3" d="M519.86,832.55h1.2q1,0,1.89,14.17L527.11,877q4.54,18.59,9.27,25.33c.62,0,1.26,1,1.89,3.09l-25.72,3.4-.31-1.13A28.07,28.07,0,0,0,518,890V882.4h-7.31l-4.22-.44c-1,.29-1.51,1.19-1.51,2.71a15.58,15.58,0,0,0,5.73,12.22v.44l-1.51.76q-23-.51-23-2.27a62.88,62.88,0,0,0,11.1-20.36q5-15.06,5-27.54v-1.2q0-2.84-6.5-6.49c-1.26,0-1.89-.37-1.89-1.13Q495.72,837.39,519.86,832.55Zm-7.31,24.51-5.36,16.07v.44H508l8.45-.44v-.31A122.47,122.47,0,0,0,513,857.06Z"/><path class="cls-3" d="M556.21,835.63q2.7,0,17.58,4.23h1.58q3,0,8-4.23c.5,0,.76.4.76,1.2q-3.48,14.8-7.63,18.4a26.27,26.27,0,0,0-18.78-7.69q-12.16,0-14.18,7.69l-.38,1.52a74.4,74.4,0,0,0,7.31,23.38q6.67,10.33,10.34,10.33,7.05,0,9.2-10v-.31q0-4.86-7.69-10.34v-.44c.17-.75,1-1.13,2.65-1.13l20.35-.76.38.38v.38q-2,17.58-5.36,22.24-6,8.84-19.53,8.83l-4.23.31q-19.47,0-23-26l-.76-15.76q0-14.31,19.54-21.81Z"/><path class="cls-3" d="M591.35,856h16.07c1.52.17,2.27.55,2.27,1.13q-5.36,11-5.35,12.23v5.36q0,5.87,6.93,14.56v1.19l-.44.38v.38l-12.23.38H585.18v-.76Q594,886,594,874.39t-6.18-16.51l-.31-1.51Zm5.74-23.76h.75q7.7,0,10.34,7.25v5.42q-4.35,6.5-8.07,6.49h-3.84q-7,0-8.45-10Q590.1,832.23,597.09,832.23Z"/><path class="cls-3" d="M649.5,837.21h.38l.38,1.89v3.47q0,16.44-1.51,16.45h-.38q-7.75-6.87-13.43-6.87-13,0-13,14.55,0,18.79,13.42,18.79,8.56,0,13.8-8.83h.38l.76,1.14v6.93q0,10-2.27,10l-16.89,3.84q-9.08,0-18-16.89a43.17,43.17,0,0,1-1.51-10q0-17.46,3.85-20.73a40.33,40.33,0,0,1,16.44-11.09l1.52-.38h2.71l6.11,1.89C643.58,841.37,646,840,649.5,837.21Z"/><path class="cls-3" d="M431,905.18s9.76-2.61,9.76-14.67.8-29.06-2.29-33.78-6.68-9.9-6.68-9.9,7.34,1.63,9.49,1.63,10.39-2.36,11.35-3.32c0,0,4.25,18.55,5.94,23.55s4.11,12.2,4.11,12.2,3.69-20.61,4.25-24.25,2.8-17,2.8-18.78a5,5,0,0,0-2-4.49h11.54s9,.28,10,.79c0,0-6.08,4.26-6.08,9.16v57.89s-.79,5.75,7,13.92c0,0-7.94.52-11.86.52h-13s9.39-7.57,9.39-16.91-.05-47.52-.05-47.52-5.23,22.43-6.35,27-3.09,17.9-6.54,22.29c0,0-5.33-17.94-6.41-20.84s-3.59-11.44-4.85-12.89c0,0-1.59,21.91-1.36,27.1s-1.49,7.56,5.56,10.7Z"/><path class="cls-3" d="M414.25,733.54l.6,3.36A84.85,84.85,0,0,1,412,759.59Q401.79,750,394.4,750h-4.47q-10.23,1.57-10.23,9.63,3.06,2.68,28.88,15.89,8,7.47,8,13.06v2.24q0,17.33-19.85,34-7.32,4-10.23,4h-.59q-13.44,0-27.17-25.52c-4.18-3.63-6.27-6.65-6.27-9q7.69-1.72,34-1.72h.6v1.12q-7.39,7.1-7.39,10.22v.6q.9,6.19,6.2,6.19h2.31q9,0,9-19.25v-1.72q0-5.29-17-6.26-20.37-2.7-20.37-19.26V763q0-13.87,19.85-25.52a13.91,13.91,0,0,1,7.39-1.72h2.24l9.1,2.84Q402.31,738.62,414.25,733.54Z"/><path class="cls-3" d="M418.29,755.9h10.25q22.71,0,22.71,1.4c0,.7-1.08,1.16-3.26,1.39q-10.25,4.9-10.25,17v2.51l-.35.29L439.55,809h.35q9.72,0,11.64-2.16l7.11-8.85q1,0,1.75,20.91l-1,.7q-22.83.69-32.62,1.74h-4.25l-.7-.69V820q6.35-8.87,6.35-16.66V783.16q0-20.85-8.5-25.51c-.94-.39-1.4-.74-1.4-1Z"/><path class="cls-3" d="M503.16,764.52h.35q2,0,2.8,20.15V785h-1.05q-6.18-7.74-13.11-7.75l-9.9-.4q-2.14,1.39-2.15,8.85v2.15l1.11,1q5.18,0,10.94-5.65a75.55,75.55,0,0,1,1.46,16.66v1.75h-.7q-9.72-4.26-11.41-4.25h-1a26.57,26.57,0,0,0-1.11,7.39v3.56c0,.73,2.25,1.22,6.76,1.45q13.45,0,13.45-3.2l4.6-4.6c.7,1.39,1.05,3.88,1.05,7.45V819l-.7.7-37.22,1-.29.35h-.41l-.29-.35H466l-4.61.76-.34-1.11q8.14-12.57,8.15-25.45a48.6,48.6,0,0,0-7.81-27.32l-.69-1.74H461l34,2.79Q498.16,768.24,503.16,764.52Z"/><path class="cls-3" d="M553.58,761.24H554q2.13,0,3,21.79v.38h-1.13Q549.17,775,541.68,775l-10.7-.44c-1.56,1-2.33,4.2-2.33,9.57v2.33l1.19,1.14q5.61,0,11.84-6.11a82.24,82.24,0,0,1,1.57,18v1.89h-.75q-10.51-4.6-12.34-4.6h-1.07a28.82,28.82,0,0,0-1.2,8v3.84c0,.79,2.43,1.32,7.3,1.57q14.55,0,14.55-3.46l5-5q1.14,2.26,1.14,8.06v10.33l-.76.76-40.23,1.13-.32.38h-.44l-.31-.38h-.44l-5,.82-.38-1.2q8.82-13.61,8.82-27.52,0-16.68-8.44-29.53l-.76-1.89H508l36.77,3Q548.17,765.27,553.58,761.24Z"/><path class="cls-3" d="M559,762.31q25.34,1.74,29.42,3.9,6.57,1.86,8.85,6,5.29,8.32,5.3,13.8v.76q0,8.33-22.66,14.15c-1,0-1.45.23-1.45.7q0,11.42,5.7,17.7v.35q-.23,1.05-2.85,1.05H565.77q-3.9,0-3.9-1.05,5.64-2,5.65-12l.35-8.45v-17.7q0-7.58-9.56-18.47ZM578.17,791l1.4.7q11.31-2.57,11.3-9.55,0-5.94-7.74-7.11H582q-3.56,0-3.55,9.2Z"/><path class="cls-3" d="M606.83,785.29h15.7c1.47.16,2.21.53,2.21,1.11q-5.24,10.71-5.23,11.94v5.23q0,5.73,6.77,14.22V819l-.43.37v.37l-11.94.37H600.79v-.74q8.63-4.74,8.62-16.07t-6-16.13l-.31-1.47Zm5.6-23.21h.74q7.5,0,10.09,7.08v5.29q-4.25,6.34-7.88,6.34h-3.75q-6.84,0-8.25-9.79Q605.6,762.08,612.43,762.08Z"/><path class="cls-3" d="M652.23,757.53q24,.47,24,2.45-5.29,8.26-5.3,12.4a82.14,82.14,0,0,0-1.4,16.25q0,24.52,4.6,28.72L677,820.9v.7l-16.31,2.79c-1.16,0-2.12-2.48-2.85-7.45q-3.55-9.68-12-27.26h-.41l-.7,13.1q0,8.1,4.66,11.71l1.05,1.46q0,1.27-23.76,2.79l-.35-.35v-.7q9.55-5.58,9.55-23,0-17.94-9.55-24.46l-1-1.4v-.35l2.45-.35h20.56q1,0,6,16,5.83,14,6.76,14.85l.35-7.8q0-26.39-10.25-31.86l-.35-.35v-1.11Z"/><path class="cls-3" d="M700.12,757.66q2.68,0,17.43,4.18h1.57q3,0,7.93-4.18c.5,0,.75.39.75,1.18q-3.43,14.7-7.56,18.25a26,26,0,0,0-18.62-7.62q-12.06,0-14.07,7.62l-.37,1.5a73.79,73.79,0,0,0,7.25,23.19Q701.06,812,704.68,812q7,0,9.12-9.94v-.31q0-4.81-7.62-10.25v-.44c.17-.75,1-1.12,2.62-1.12l20.19-.75.38.37V790q-2,17.43-5.32,22.06-5.92,8.76-19.37,8.75l-4.19.31q-19.31,0-22.81-25.75l-.75-15.62q0-14.19,19.37-21.63Z"/><path class="cls-5" d="M295.52,788.63c-7.23-11.07-22.93-35.53,29.9-60S477.8,704,569.75,707.87,713.9,730.42,733.34,737s57.56,28.53,46.35,50.08S745.05,817.52,732.84,823s-55.38,18.44-55.38,18.44c46.85,9.59,46.47,40.8,11.9,62.11s-77,35.88-149.18,41.67-108.17-7.1-127-15.13-53.26-27.85-53.26-56.52,35.88-33.47,35.88-33.47C325.05,820.52,302.74,799.7,295.52,788.63Zm85.41,51s-30.84,4.3-30.84,33S375,919.43,393.3,929s61.95,30.15,166.61,22.8,168.21-58,163.65-84c-4.21-23.94-32.89-27.3-32.89-27.3s70.33-14.21,92.38-40.25-2.61-45.47-11.34-52.58-41.24-27.66-121.47-40.24-244.82-10.22-297.78,7-76.13,32.64-75.63,53.82,16.69,31.65,36.38,44.61S380.93,839.63,380.93,839.63Z"/><path class="cls-3" d="M399.27,713.72c-31.78,0-54.27-13.13-60.4-17.16-27.48-18-43.23-48.77-43.23-84.37a118.09,118.09,0,0,1,2.19-22.6c-3.59,5-9.35,12.32-19.05,23.55-5,6.62-9.22,10.83-13.72,13.61l-.78.48A25.31,25.31,0,0,1,251,631c-13.55,0-22.84-10.58-26.59-15.24-4.78-4.92-13-15.31-32.5-46.75L141.18,491.2l-2.69-4.35c-15-24.25-19.58-40.55-15.09-54,3-10.81,12.27-20.26,31.51-32.19l12.55-8.09.16-.1c21.07-13,37.21-20.18,50.56-22.35a110.84,110.84,0,0,1,31-4.93A72.22,72.22,0,0,1,269.88,368l.71.21.69.26a111.29,111.29,0,0,1,37.13,23.43,261.18,261.18,0,0,1-3.65-27.22l-.16-2.77.6-2.7c2.34-10.57,10.7-17.81,24.87-21.56l1.65-1,6.06-.77,11.45-2.68.2,0a37.91,37.91,0,0,1,7.87-.87c13.05,0,23.3,7.89,26.45,20.22,1.25,4.15,3.85,14.87,12,50.39l4.3,16.83c8.75-2.56,16-4.45,21.92-5.71a30.15,30.15,0,0,1,6.27-.68,25.53,25.53,0,0,1,19,8.14c10.05-36,18.91-65.82,26.38-88.89l.16-.52.2-.5c3.41-8.89,8.45-14.68,15-17.27a24.31,24.31,0,0,1,2.44-1,47.29,47.29,0,0,1,4.59-1.23l1-.23,2.33-.26a31.08,31.08,0,0,1,3.41-.18,60.38,60.38,0,0,1,8.92.79,46.18,46.18,0,0,1,11.9-3.29l1.25-.14a31.09,31.09,0,0,1,3.32-.19,27.81,27.81,0,0,1,20.26,8.68,25.54,25.54,0,0,1,20.12-14.25L576,302l93.39-10,1.35-.14a28.29,28.29,0,0,1,22.13-17.71l.31-.05.31,0c5.52-.63,33.52-3.76,42.75-3.76.52,0,1,0,1.44,0,14.4.49,25.25,11.34,29.88,23.07a33.76,33.76,0,0,1,6.57-14.67l.16-.2c5.67-7.57,14.77-9.69,19.68-10.28l.43-.05.42,0c2.31-.17,22.78-1.73,31.5-1.83l2.39,0,2.8,0c9.67,0,16.08,3,22.12,10.42,5.88,7.21,8.19,17.31,6.67,29.19-.59,4.67-11.78,69-13.74,77.3-.16.68-.4,1.83-.74,3.41-3.35,15.71-13.55,63.5-34.93,114.72-24.42,58.47-61.46,95-113.25,111.69-16.67,5.37-36.25,8.09-58.19,8.09-29,0-54.59-4.81-63-6.39l-.78-.15c-3.5-.65-9.27-1.93-17.25-3.7-20.09-4.44-53.72-11.88-78.52-15.19-1.63-.22-3.24-.41-4.83-.56a58.13,58.13,0,0,1,13,23.93,69.71,69.71,0,0,1-30.5,77.78A107,107,0,0,1,399.27,713.72ZM298.76,546.38l.16.25a44.23,44.23,0,0,1,6.72,17.93,120.34,120.34,0,0,1,42.28-51.16,25.17,25.17,0,0,1-10.21-5.64c-.38.68-.77,1.35-1.16,2l-.28.48-.31.46c-5.84,8.65-15.79,17.26-30.43,26.32l-.43.27-9.05,5Zm146.87-48.69a260.77,260.77,0,0,1,55.75,18.59c25,11.57,73.89,31,119.87,31a126.83,126.83,0,0,0,30.45-3.44c43.7-10.86,60.55-40.47,68.65-54.7,1.25-2.2,2.33-4.1,3.42-5.78,2.61-4,2.64-8.15,1.73-14.79-.73-3.77-5.8-17.76-8.53-25.31-2.28-6.29-4.25-11.73-5.44-15.51-1.41-4.46-9.48-26.28-16.59-45.53q-2.21-6-4.14-11.2A33.66,33.66,0,0,1,680,373.94l-.28,0-4,.31L674,375.85l-4.23-.47,8.6,61.44,0,.31a50.25,50.25,0,0,1-.23,15.17c-1.63,8.28-6.71,14.71-13.6,17.68-7.67,4.34-17.61,7.12-30.27,8.48l-.88.1a49.5,49.5,0,0,1-5.32.3c-7.64,0-13.75-2.11-18.36-5.43a47.21,47.21,0,0,1-8.1,4.81c-4.8,2.25-11.62,4.31-22.15,6.7l-1.11.25-6.85.76-1.3,0a59.93,59.93,0,0,1-9-.73,22.53,22.53,0,0,1-13.88-7.62c-3.95-4.14-8.54-11.21-16.11-26.64l-8.32.92a239.72,239.72,0,0,1-7.16,24.23l-.25.67-.31.66c-4.49,9.67-11,13.64-16.17,15.23a34.1,34.1,0,0,1-9,2.32l-2.5.28a66.13,66.13,0,0,1-7,.34c-4.5,0-10-.33-16.77-1l-1.16-.11-1.14-.25a56.41,56.41,0,0,1-6.53-1.83A26,26,0,0,1,445.63,497.69ZM593.29,394.9,592.21,383l-5,.76Z"/><path class="cls-4" d="M831.47,286.18c3.7,0,4.46.41,6.62,3.06,2.89,3.55,2.89,9.62,2.33,14s-11.68,68.12-13.36,75.22-11.49,59.52-34.67,115-56.81,86.16-100.92,100.36c-16.65,5.36-35,7.13-52.06,7.13-28.09,0-52.63-4.8-60.07-6.2-12-2.24-61.86-14.39-96.81-19.06a142,142,0,0,0-18.73-1.3c-26.61,0-48.63,8.64-62.19,27.84-16.64,23.55-4.68,56.13,19.25,61.11a39.68,39.68,0,0,0,8.16.9c17,0,20.83-13.23,20.83-13.23-3.27,1.49-4.82,2.12-10.68,2.37h-.87c-5.81,0-13.83-2.31-18.69-5.75-5.11-3.61-8.85-8-9.78-20-.92-11.76,5.56-27.12,32.38-27.12l1.45,0c28,.56,41.67,54.76,3.17,79.24a87.51,87.51,0,0,1-47.56,13.88c-21.07,0-39.29-7.23-49.43-13.88-17.38-11.4-34.2-33.08-34.2-67.65a100.33,100.33,0,0,1,56.25-89.71c12.13-6,25.78-8.41,39.78-8.41,29.12,0,59.74,10.4,81.32,20.37,25.78,11.91,78.17,32.81,128.26,32.81a146.5,146.5,0,0,0,35.27-4c58.69-14.58,77.19-58.43,84-69s5.73-21.31,4.74-28.54-11.59-34.14-14.71-44S699.7,338.08,697,329.23s-7.22-16.57-8.09-25.41,6.85-10,6.85-10,31.92-3.63,40.49-3.63l.75,0c7.23.24,12,8.84,12.83,13.33s21.93,90.45,23.3,94.56c.76,2.29,1.56,4.95,2.55,4.95.79,0,1.7-1.71,2.81-6.69,2.49-11.21,7.51-86.59,8.07-94.35s2.33-9.72,3.73-11.59,6.08-2.43,6.08-2.43,21.86-1.68,30.18-1.77c2.11,0,3.71-.07,5-.07m-154.2,25.26q7.11,0,7.42,2.92a16,16,0,0,1,2.25,7.36,88.58,88.58,0,0,1-1.13,27.8q-2,3.89-8,4.53l-10.74.84,0-.25-.29.28-1.15-.12-15.15,1-3.44,1,11.53,82.47q1.31,12.09-2.45,12.49-7.82,5.08-23.9,6.82l-.88.09a28.12,28.12,0,0,1-3.18.19q-8.52,0-9.18-6.14l-.77-4.79-8-87.49-1.22-.19-27.67,4.18-1,0q-7.85,0-8.26-3.9-4.92-10.49-6.54-25.45l0-.31q-1.2-11.15,5.75-11.9l7.23-1.09,93-10a56.32,56.32,0,0,1,5.77-.35m-149,17.21q5.37,0,8.22,6.07,10.08,16.11,33.7,59.55l28.75,52.51a22.82,22.82,0,0,1,1.92,5.93v.13q.39,3.5-7.68,7.31-4.93,2.31-18,5.29l-4.44.49q-7.81-.15-7.95-1.4-4.73-3.79-17-29.74l-7-14.36-13.22,11-.38,0-15.81-7.81-.19,0q-7.5,33.51-12,45.29c-1.36,2.93-2.88,4.5-4.55,4.68a14.59,14.59,0,0,1-4.72,1.41l-2.5.28a46.47,46.47,0,0,1-4.8.22q-5.7,0-14.79-.91-9.81-2.15-10.21-5.77v-.13q-.56-5,8-31,16.92-61.17,29.15-98.95,2.22-5.76,4.34-6c0-.25,1.1-.63,3.36-1.13l1.26-.14a10.55,10.55,0,0,1,1.2-.06A67.93,67.93,0,0,1,514.2,333q8.09-3.74,11.65-4.13l1.25-.14a10.86,10.86,0,0,1,1.12-.07m-7.93,51.94a25.83,25.83,0,0,0-9.71-2.39,12.38,12.38,0,0,0-1.38.07,11.78,11.78,0,0,0-8.91,5.93,7,7,0,0,0-.57,3.36l.08.75q.72,6.57,15.94,16.35,6.35,3.87,7.4,3.87h.06a103.84,103.84,0,0,0,14.85-12.92q4.58-5.58,4-10.77l-.17-1.5q-.63-5.76-7.82-7.12a15.09,15.09,0,0,0-2.45-.2,16.86,16.86,0,0,0-1.86.11l-.76.08a14.41,14.41,0,0,0-8.51,4.36l-.19,0m-163-28.25q6,0,7.17,5.59.84,1.81,11.88,49.74l9.29,36.39c.36.56.66.83.89.83h.06q25.91-8.36,39.58-11.26a10.19,10.19,0,0,1,2.11-.24,5.65,5.65,0,0,1,5.13,2.82q5.25,10.08,9.25,28.93l.81,5-.25.05.3.19q.72,7.32-4.64,8.46l-1.72.37q-71.28,14.15-83.05,15.1-5-.48-7.1-10.33l-3.93-18.48-1.18-8-3.41-16,.19-.3-.3-.19v-1.28l-1.95-9.12q-10.73-50.43-11.69-67,1-4.59,12.9-7.12l.69-.4,3-.39,12.26-2.87a17.92,17.92,0,0,1,3.71-.43M249.24,385.15a52,52,0,0,1,14.92,2q29.93,11.4,49.12,42.42l3,4.78q21.38,34.55,3.13,65.12Q313.1,508.81,295,520l-19.08,10.51q-7.76,4.8-3.83,11.14l1.37,2.73,8.44,12.77q5.63,9.08,3.3,15-3.27,6.79-22,28.48-5.21,7-8.64,9.14l-.79.49a5.21,5.21,0,0,1-2.8.81q-4.84,0-11.64-8.56-8.22-8-30.57-44.14l-50.67-77.86-2.57-4.15Q138.58,449,142.56,438.61q1.73-7.89,23-21.08l12.55-8.09q28.61-17.7,44.42-19.8,14.69-4.49,26.68-4.49M293.06,485a99,99,0,0,0,14.22-1.15l1-.63q2.68-2.83,4-18.32,0-14.12-4.47-21.4-3-4.79-7.31-4.79a12.81,12.81,0,0,0-6.61,2.25l-1.18.73q-7.36,4.56-6.06,13.83-8.19.94-11.95,3.28l-1.41.87q-7,4.32-5.06,13.53l1.12,2.34.24.39q5.61,9.08,23.41,9.07M831.47,246.18c-.91,0-2,0-3.17,0l-2.25,0c-9.16.1-28.93,1.59-32.8,1.89l-.85.07-.85.1c-6.39.77-17.16,3.21-26.41,10.89a49.75,49.75,0,0,0-26.81-8.94c-.67,0-1.36,0-2.11,0-9.8,0-34.75,2.72-45,3.88l-.62.07-.62.09a48.94,48.94,0,0,0-22.22,9.42,47.44,47.44,0,0,0-9.23,9.28L574.25,282l-.86.09-.85.13-6.76,1a46.63,46.63,0,0,0-20.91,8.27,48.41,48.41,0,0,0-16.65-2.9,51.06,51.06,0,0,0-5.52.31l-1.24.14a57.9,57.9,0,0,0-12.05,2.72c-2.38-.23-4.54-.34-6.58-.34a51,51,0,0,0-5.6.3l-1.26.14-2.15.24-2.12.47a62.47,62.47,0,0,0-6.64,1.8,45.92,45.92,0,0,0-4.28,1.7c-8.95,3.78-19.07,11.74-25.44,28.31l-.39,1-.33,1c-5.94,18.34-12.74,40.89-20.29,67.3a46.69,46.69,0,0,0-6.05-.39,50.39,50.39,0,0,0-10.45,1.12c-1.06.22-2.16.47-3.3.73C407.34,364,404.58,352.47,403,347c-5.59-20.84-23.62-34.66-45.67-34.66a58,58,0,0,0-12,1.31l-.39.08-.39.1-10.25,2.39-1,.13-8.14,1-2.92,1.72a65,65,0,0,0-13.08,5.36c-11.68,6.45-19.79,16.54-23,28.58-2.53-1.16-5.11-2.23-7.73-3.23l-1.38-.53-1.42-.42a92.32,92.32,0,0,0-26.36-3.71h0a129.76,129.76,0,0,0-35.56,5.41c-15.75,2.83-33.86,10.8-56.58,24.86l-.31.2-.32.2-12.25,7.9c-16.69,10.36-34.22,23.56-39.93,43.22-8,24.8,4.91,50.57,17.21,70.44l2.57,4.15.24.39.25.38L175,579.77c19.6,31.65,28.52,43.15,34.53,49.44C221.62,643.7,235.56,651,251,651a45.25,45.25,0,0,0,23.85-6.8l.8-.49c1.1-.68,2.17-1.4,3.24-2.18,6.72,29.85,23.79,55.14,49.06,71.72,19.5,12.79,46.18,20.43,71.37,20.43a126.66,126.66,0,0,0,69-20.13A89.51,89.51,0,0,0,509,620.77c16.58,3.22,33.21,6.9,45.06,9.52,8.17,1.81,14.08,3.11,17.9,3.83l.75.14c8.85,1.67,35.78,6.74,66.69,6.74,24,0,45.67-3,64.32-9.06a187,187,0,0,0,74-44.1c21.16-20.61,38-46.43,51.61-78.92,22.1-52.93,32.6-102.1,36-118.25.25-1.15.55-2.57.65-3,2.13-9,13.35-73.43,14.11-79.36,2.23-17.46-1.58-32.8-11-44.37-9.76-12-22.06-17.77-37.61-17.77ZM673.86,487.72a42.53,42.53,0,0,0,15.81-12.9,45.35,45.35,0,0,0,8.17-18.66c.32-1.62.56-3.27.74-5,2.36,6.53,6.15,17.06,7.24,21.09.07.55.15,1.19.19,1.74-1,1.67-2,3.4-3,5.2-7.24,12.72-20.71,36.4-56.09,45.19a106.88,106.88,0,0,1-25.63,2.85c-36.86,0-77.33-14.48-100.48-24.27a48.49,48.49,0,0,0,10.67-13.27c.34.38.67.76,1,1.12a41.26,41.26,0,0,0,13.66,10.39,45.13,45.13,0,0,0,11.71,3.68,78.37,78.37,0,0,0,12.07,1l2.59.05,2.58-.28,4.44-.5,2.25-.24,2.2-.5c12-2.72,20.08-5.22,26.21-8.1h0l0,0,.5-.23a54.75,54.75,0,0,0,17.43,2.77,68.67,68.67,0,0,0,7.46-.42l.87-.09c15.12-1.63,27.41-5.12,37.39-10.63Z"/><g id="Platy_Shadow" data-name="Platy Shadow"><path class="cls-5" d="M191.51,415.17q28.61-17.7,44.42-19.8,24.6-7.51,41.61-2.45,29.91,11.4,49.11,42.42l3,4.78q21.38,34.54,3.14,65.13-6.27,9.3-24.37,20.5l-19.07,10.5q-7.76,4.8-3.83,11.14l1.36,2.73,8.44,12.77q5.63,9.09,3.31,15-3.29,6.79-22,28.48c-3.46,4.68-6.34,7.72-8.64,9.15l-.78.48q-5.56,3.45-14.44-7.75-8.22-8-30.57-44.14l-50.68-77.86-2.57-4.15Q152,454.72,155.93,444.34q1.73-7.89,23-21.08Zm108.57,46q-8.19.94-11.95,3.28l-1.41.87q-7,4.32-5.06,13.53l1.12,2.34.24.4q7.62,12.3,37.63,7.92l1-.63q2.67-2.85,4-18.33,0-14.1-4.46-21.4-5-8.06-13.93-2.54l-1.17.73Q298.79,451.94,300.08,461.21Z"/><path class="cls-5" d="M351.69,361.76l3-.39L367,358.51q9.36-2,10.88,5.15.84,1.81,11.88,49.74l9.3,36.39c.38.61.7.88,1,.83q25.9-8.36,39.57-11.26c3.33-.71,5.74.15,7.25,2.58Q452,452,456,470.87l.8,5-.25,0,.3.2q.72,7.31-4.64,8.45l-1.72.37q-71.28,14.15-83,15.11-5-.5-7.09-10.34l-3.94-18.47-1.18-8-3.41-16,.19-.3-.3-.2v-1.28l-1.94-9.12q-10.74-50.43-11.7-67,1-4.6,12.9-7.13Z"/><path class="cls-5" d="M513.75,337.41l1.25-.14q3.19-.36,12.58,1.46,8.07-3.75,11.64-4.14l1.25-.14q6.19-.69,9.34,6,10.08,16.11,33.71,59.55l28.74,52.51a22.55,22.55,0,0,1,1.92,5.93l0,.13q.38,3.49-7.68,7.31-4.95,2.33-18,5.29l-4.45.49q-7.8-.15-7.94-1.4-4.74-3.78-17-29.73l-7-14.37-13.23,11-.37,0-15.82-7.81-.19,0q-7.5,33.53-12,45.29-2.06,4.41-4.56,4.68a14.52,14.52,0,0,1-4.72,1.41l-2.5.28q-6,.66-19.59-.69-9.79-2.15-10.2-5.77l0-.13q-.56-5,8-31,16.94-61.17,29.16-99c1.47-3.84,2.92-5.83,4.34-6C510.36,338.29,511.48,337.91,513.75,337.41Zm-.66,55.88.08.75q.74,6.57,15.94,16.36c4.35,2.64,6.83,3.93,7.46,3.86a103.84,103.84,0,0,0,14.85-12.92q4.58-5.58,4-10.77l-.16-1.5q-.64-5.76-7.82-7.12a15.54,15.54,0,0,0-4.32-.09l-.75.08a14.4,14.4,0,0,0-8.52,4.36l-.18,0Q527,383.51,522.58,384a11.77,11.77,0,0,0-8.91,5.93A7,7,0,0,0,513.09,393.29Z"/><path class="cls-5" d="M591.9,327.53l93-10q12.76-1.36,13.19,2.57a16,16,0,0,1,2.25,7.36,88.59,88.59,0,0,1-1.12,27.8q-2,3.88-8,4.53l-10.74.84,0-.25-.28.28-1.16-.12-15.15,1-3.44,1L671.93,445c.86,8.05.05,12.21-2.46,12.48q-7.82,5.08-23.9,6.82l-.88.09q-11.58,1.26-12.35-5.95l-.77-4.79-8-87.49-1.23-.19-27.66,4.19q-8.78.24-9.22-3.89-4.93-10.48-6.54-25.45l0-.31q-1.2-11.14,5.75-11.89Z"/></g><g id="Platy_shadow1" data-name="Platy shadow1"><path class="cls-4" d="M185.78,412.3q28.6-17.69,44.42-19.79,24.6-7.53,41.61-2.45,29.91,11.38,49.11,42.41l3,4.78q21.38,34.56,3.14,65.13-6.27,9.3-24.37,20.5l-19.07,10.5q-7.77,4.8-3.83,11.15l1.36,2.73L289.55,560q5.63,9.09,3.3,15-3.27,6.79-22,28.48-5.19,7-8.64,9.14l-.79.49q-5.55,3.43-14.43-7.75-8.22-8-30.57-44.15l-50.68-77.86-2.57-4.15q-16.92-27.35-12.94-37.71,1.73-7.91,23-21.09Zm108.57,46.05q-8.19.94-12,3.27l-1.41.88q-7,4.31-5.06,13.53l1.12,2.34.24.39q7.62,12.3,37.63,7.92l1-.63q2.67-2.85,4-18.32,0-14.12-4.46-21.4-5-8.07-13.93-2.54l-1.17.72Q293.05,449.07,294.35,458.35Z"/><path class="cls-4" d="M346,358.89l3-.38,12.26-2.87q9.36-2,10.88,5.15.84,1.81,11.88,49.75l9.3,36.39c.38.6.7.88.94.82q25.9-8.34,39.58-11.25c3.33-.71,5.74.15,7.25,2.57q5.24,10.1,9.25,28.93l.8,5-.25.06.3.19c.48,4.88-1.06,7.69-4.64,8.46l-1.72.36q-71.28,14.15-83.05,15.11-5-.48-7.09-10.33l-3.94-18.48-1.18-8-3.41-16,.19-.3-.3-.19v-1.29l-1.94-9.11q-10.74-50.44-11.7-67,1-4.59,12.9-7.12Z"/><path class="cls-4" d="M508,334.54l1.25-.14q3.19-.34,12.58,1.46,8.07-3.74,11.64-4.14l1.25-.14q6.19-.68,9.34,6,10.08,16.13,33.71,59.56l28.74,52.5a22.47,22.47,0,0,1,1.92,5.94l0,.12q.38,3.51-7.69,7.31-4.93,2.33-18,5.29l-4.45.49c-5.2-.1-7.85-.56-7.95-1.4q-4.73-3.78-17-29.73l-7-14.36-13.22,11-.38,0-15.81-7.82-.19,0q-7.5,33.53-12,45.29-2,4.41-4.55,4.69A15,15,0,0,1,495.5,478l-2.5.27q-6,.67-19.59-.68c-6.53-1.43-9.94-3.36-10.2-5.78l0-.12q-.56-5,8-31,16.92-61.17,29.16-98.95,2.21-5.75,4.34-6C504.63,335.42,505.75,335,508,334.54Zm-.66,55.88.08.76q.72,6.57,15.94,16.35c4.34,2.65,6.83,3.93,7.46,3.86a103.21,103.21,0,0,0,14.85-12.92q4.57-5.57,4-10.77l-.16-1.5q-.64-5.76-7.82-7.11a15.92,15.92,0,0,0-4.32-.1l-.75.09a14.35,14.35,0,0,0-8.52,4.36l-.18,0q-6.66-2.81-11.09-2.32a11.74,11.74,0,0,0-8.91,5.93A6.93,6.93,0,0,0,507.36,390.42Z"/><path class="cls-4" d="M586.17,324.67l93-10q12.76-1.38,13.19,2.57a16,16,0,0,1,2.25,7.36,88.53,88.53,0,0,1-1.12,27.79q-2,3.89-8,4.54l-10.74.84,0-.25-.28.28-1.16-.13-15.15,1-3.44,1,11.54,82.48q1.29,12.09-2.46,12.49-7.82,5.08-23.9,6.81l-.88.1q-11.58,1.24-12.35-6l-.77-4.8-8-87.49-1.23-.18L589,367.3q-8.78.26-9.22-3.88-4.92-10.5-6.54-25.46l0-.31q-1.2-11.14,5.75-11.89Z"/></g><g id="Rainvow-2" data-name="Rainvow"><g id="Rainbow-2" data-name="Rainbow"><path class="cls-6" d="M410.63,251l11.95-18.66c1.51-2.35,15.54-23.45,44.55-41.17,23.74-14.49,53-22.48,82.46-22.48a156.71,156.71,0,0,1,25.84,2.13c37.39,6.29,75.38,30.36,90.52,50l5.61,7.27-7.37,35.62-29.36-5.79-21.44,1.72-5-13.1c-4.58-3.3-10.66-6.94-14.88-8-2.38-.58-4.58-1.16-6.71-1.72-7.42-2-12.78-3.38-21.11-3.38-2.49,0-5.18.14-8,.4-16.44,1.52-36,11.08-40.82,15.57-8.63,8.13-12.51,11.76-12.51,11.76l-5,4.65-49.66,4.83Z"/><path class="cls-4" d="M549.59,188.7a135.37,135.37,0,0,1,22.53,1.86c33.39,5.61,66.28,27.29,78,42.49l-1.49,7.22L636,237.78l-9.3.75L625,234.2s-14.06-12-26.86-15c-10.52-2.53-18.74-5.65-32.51-5.65-3,0-6.27.15-9.87.48-20.17,1.87-44.09,12.84-52.69,20.94l-12.46,11.71-37.13,3.61-14.08-7.1s12.21-19.06,38.13-34.89c20.13-12.29,45.89-19.54,72-19.55m0-40v0h0c-33.06,0-66.05,9-92.89,25.41-32.83,20-49.2,44.71-51,47.45l-23.91,37.33,39.58,20,14.08,7.1,10.35,5.23,11.54-1.13,37.13-3.61L508,285.12l9.93-9.28s3.78-3.54,12.18-11.46c4.21-3.16,18.51-9.56,29.33-10.57,2.23-.2,4.31-.31,6.18-.31,5.73,0,9.38,1,16,2.72,2.05.54,4.38,1.15,6.87,1.76a22.12,22.12,0,0,1,3.47,1.76l8.1,21.06,29.8-2.4,3.78-.3,7.2,1.42,38.89,7.67,8-38.81,1.49-7.23,3.72-18-11.2-14.55c-9.37-12.15-24.47-24.6-42.52-35-13.67-7.9-35.27-18.22-60.54-22.47a176,176,0,0,0-29.15-2.41Z"/><path class="cls-7" d="M682.36,290.23l-1.86-8.41c-.61-2.35-9.92-36.17-47.41-63.51-34.48-25.15-73-27.87-88-27.87-9.32,0-17.83,1-24,2.76-2,.58-4.08,1.15-6.24,1.75-25.12,7-59.48,16.5-91.54,69.93L411.1,290.93l-44.79-17.31L361,252.21l2-5.6c1-3,26-72.62,106-110.16a194.75,194.75,0,0,1,83.43-18.37c51.26,0,95.69,18.82,120.18,36.43,38.57,27.75,70.24,72.1,80.68,113l4.24,16.62L723.4,298.65l-21.26,2.65Z"/><path class="cls-4" d="M552.36,138.08c45.95,0,86.46,16.82,108.5,32.67,33.61,24.17,63.26,63.62,73,101.71l-15.7,6.69-12,1.49L700,277.15s-10-42.11-55.07-75c-32.17-23.46-70.67-31.71-99.79-31.71-11.71,0-21.89,1.33-29.54,3.55-26.66,7.72-70.77,15.7-109.89,81.48l-4.74,10.08-17.69-6.84-1.37-5.54s22.3-64.23,95.56-98.62a175.33,175.33,0,0,1,74.94-16.47m0-40v0a214.73,214.73,0,0,0-91.94,20.26,236,236,0,0,0-90.66,75c-17.68,24.42-24.93,44.54-25.7,46.75l-3.89,11.2L343,262.77l1.37,5.54,5,20.21,19.41,7.5,17.69,6.84,34.78,13.45,15.85-33.75,3.87-8.24c27.77-45.82,55.09-53.4,79.22-60.09,2.13-.59,4.32-1.2,6.46-1.82,1.6-.46,7.64-2,18.41-2,27.1,0,55.59,9,76.22,24,30.21,22,38.78,48.78,39.77,52.16l3.61,17.68,15.71,7.74,6.23,3.49L698.1,322l13-1.63,12-1.49,5.56-.7,5.16-2.19,15.7-6.69,31.56-13.45-8.48-33.24c-11.71-45.88-45.58-93.5-88.39-124.29-15.47-11.13-34.85-20.74-56-27.77a240.09,240.09,0,0,0-75.81-12.43Z"/><path class="cls-8" d="M763.27,309.2c-9,0-17.06-5.33-21.44-14.27-2.09-4.26-3.55-9.52-4.6-16.58-2.25-15.12-16.07-50.64-43.56-81.53-34.91-39.23-79.83-59.47-133.52-60.14-.94,0-1.87,0-2.81,0C436,136.66,391.47,238.41,391,239.44l-3.58,8.44-28.89,9.25L315,226.34V196.28L319,191c31.33-42.18,70-84.28,140.47-106.57a265.75,265.75,0,0,1,80.28-12.49c53.5,0,104.79,15.94,152.44,47.38,77.9,51.41,102.67,139.18,103.68,142.9l1.6,5.83-1.91,5.75C787.5,297.94,777.25,309.2,763.27,309.2Z"/><path class="cls-4" d="M539.71,91.91c46.28,0,94.78,13.3,141.42,44.08,72.52,47.84,95.41,131.48,95.41,131.48s-7.21,21.73-13.27,21.73c-2.47,0-4.74-3.61-6.26-13.79-5.23-35.14-58.31-157-196.61-158.73-1,0-2,0-3.06,0-136,0-184.71,115-184.71,115L362,235,335,216V202.9c29.16-39.25,64.29-78.5,130.45-99.43a245.93,245.93,0,0,1,74.25-11.56m0-40A285.94,285.94,0,0,0,453.4,65.33c-75.86,24-117.16,68.84-150.5,113.71L295,189.66v47l16.91,12,27,19,16.29,11.52,19-6.08,10.65-3.42,17.8-5.69,6.78-16.65c.87-1.92,11.6-24.71,34.73-46.73,30.66-29.19,68.75-44,113.21-44h2.56c47.83.61,87.81,18.59,118.83,53.44a189.73,189.73,0,0,1,28.75,43.24c6.64,13.84,9.39,24.08,10,28,1.36,9.15,3.4,16.28,6.42,22.44a46.88,46.88,0,0,0,11.65,15.18,42.86,42.86,0,0,0,27.75,10.28c8.25,0,24-2.52,36.64-19.4a82.16,82.16,0,0,0,8.45-14.42,151.82,151.82,0,0,0,6.15-15.31l3.81-11.49-3.2-11.68c-.71-2.6-7.45-26.34-24-56.51a301.07,301.07,0,0,0-33.93-49.53,255.34,255.34,0,0,0-54-48.26,311.53,311.53,0,0,0-81.31-38.48,283.87,283.87,0,0,0-82.14-12.21Z"/><path class="cls-6" d="M439.42,243.14s12.21-19.06,38.13-34.89,61.17-23.3,94.57-17.69,66.28,27.29,78,42.49l-1.49,7.22L636,237.78l-9.3.75L625,234.2s-14.06-12-26.86-15-22.21-7-42.38-5.17-44.09,12.84-52.69,20.94l-12.46,11.71-37.13,3.61Z"/><path class="cls-7" d="M381.86,253.17s22.3-64.23,95.56-98.62,149.83-8,183.44,16.2,63.26,63.62,73,101.71l-15.7,6.69-12,1.49L700,277.15s-10-42.11-55.07-75S542.21,166.26,515.55,174s-70.77,15.7-109.89,81.48l-4.74,10.08-17.69-6.84Z"/><path class="cls-8" d="M372.63,231.63s49.49-116.7,187.77-114.95S751.78,240.27,757,275.41s19.53-7.94,19.53-7.94S753.65,183.83,681.13,136,531.62,82.54,465.46,103.47,364.17,163.65,335,202.9V216L362,235Z"/></g></g><g id="Little"><path class="cls-3" d="M382.27,336.66h-.85l-.82-.17c-2.64-.53-8.87-2.82-9.93-12.61l-.83-7.66L369.7,313l-.25-2.36-.9-.72.37-4.14-.29-2.76.08-.11,0-.32c-1.53-14.21-2.14-23.12-1.92-28.06l.06-1.31.41-1.25c1.53-4.62,5.45-7.47,11.65-8.5l.79-.36,2.65-.06,4.6-.59a17.49,17.49,0,0,1,1.89-.1c6.52,0,11.6,4.24,12.54,10.39.34,1.83.94,6.28,2.68,20.19l.75,5c2.81-.49,5.2-.85,7.21-1.06a12.51,12.51,0,0,1,1.49-.08,11.72,11.72,0,0,1,10.79,6.66l.16.33.13.34a51.33,51.33,0,0,1,2.86,12.38l.4.32,0,4.34.49,8.59-3.61.37a11.82,11.82,0,0,1-7.51,3.77l-.82.09c-24.93,2.34-31.07,2.61-33.53,2.61Z"/><path class="cls-4" d="M388.81,271.9c1.93,0,3,.83,3.17,2.49q.25.75,2.64,19.88l2.16,14.57q.18.36.33.36h0Q407.56,307,413,306.39l.47,0a2.3,2.3,0,0,1,2.25,1.32,46.66,46.66,0,0,1,2.45,11.65l.11,2h-.1l.11.09c0,1.92-.72,2.95-2.15,3.11l-.69.07q-27.36,2.56-32.64,2.57h-.35c-1.29-.26-2.07-1.7-2.36-4.32l-.79-7.36-.14-3.17-.69-6.38.09-.11-.11-.09,0-.5-.4-3.63Q376,281.51,376.25,275c.39-1.16,2.16-1.92,5.32-2.26l.28-.13,1.19,0,4.9-.62a6.72,6.72,0,0,1,.87-.05m0-19a26.19,26.19,0,0,0-2.91.16l-.19,0-.18,0-3.93.5h-.21l-3.9.09-1.5.69c-12,2.47-16.26,10.06-17.78,14.63l-.82,2.49-.12,2.64c-.15,3.19-.12,9.32,1.58,25.88l-.09.12.62,5.76-.75,8.25,1.67,1.35,0,.83,0,.59.06.59.79,7.37c1.42,13.1,10,19.39,17.5,20.9l1.66.34,1.69,0h.75c2.87,0,9.37-.3,34.42-2.65h.13l.13,0,.69-.07a21.2,21.2,0,0,0,10.48-4.11l9.62-1.05-1-17.27,0-8.64-1.07-.86a54,54,0,0,0-2.87-10.79l-.27-.67-.32-.65a21.3,21.3,0,0,0-19.33-12h-.58c-1.29-10.3-1.84-14.38-2.24-16.49-1.83-10.51-10.8-18-21.85-18Z"/><path class="cls-3" d="M432,332.24a13.57,13.57,0,0,1-9.36-3.2l-1.39-1.24-.81-1.67a15.68,15.68,0,0,1-1.53-5.19v-.15c-1.59-17.4-2.44-28.3-2.59-33.32a11.5,11.5,0,0,1,5.72-10.6,18.65,18.65,0,0,1,7.75-2.33l3.22-.28,4-.5a19.4,19.4,0,0,1,2.23-.13c7.22,0,11.16,4.45,12.05,9.14.34,1.55.93,5.37,2.72,18.28,1.14,6.17,1.82,10.36,2.09,12.79l.17,1.59c.85,7.92-3.34,11.42-5.66,12.73h0c-2.27,1.3-5.35,2.24-10.28,3.15l-.18,0-4,.58-1.36.15A25,25,0,0,1,432,332.24Z"/><path class="cls-4" d="M439.21,283.13c1.72,0,2.63.51,2.74,1.55q.3.85,2.65,17.89,1.66,9,2,12.29l.17,1.59c.21,1.95-.09,3.11-.92,3.46Q444,321,438.57,322l-3.67.54-1.17.12a16.76,16.76,0,0,1-1.77.11,4.51,4.51,0,0,1-3-.78,6,6,0,0,1-.62-2q-2.38-26-2.56-32.94-.25-2.43,5-3l3.2-.27,4-.51a11,11,0,0,1,1.22-.07m0-19a30.47,30.47,0,0,0-3.25.18l-.16,0-.16,0-3.68.46-2.83.24-.21,0-.2,0a27.77,27.77,0,0,0-11.62,3.64,20.89,20.89,0,0,0-10.32,19.17c.11,3.45.53,10.92,2.62,33.75v.15l0,.16a25.32,25.32,0,0,0,2.43,8.34l1.63,3.34,2.77,2.48a22.91,22.91,0,0,0,15.7,5.62,33.56,33.56,0,0,0,3.8-.22l1.18-.12.35,0,.36-.05,3.66-.54.36,0,.35-.06c5.73-1.06,9.6-2.26,12.76-4,6.32-3.33,12.15-10.7,10.9-22.29l-.17-1.59c-.18-1.69-.6-4.91-2.15-13.28-2-14.15-2.52-17.74-3-19.56a20.6,20.6,0,0,0-9.85-13,22.78,22.78,0,0,0-11.32-2.84Z"/><path class="cls-3" d="M476.28,327.71c-8,0-12.28-5.25-13-10.56l-.33-2-2.26-24.73-1.92.29-.58,0h-.64c-7.26,0-11-3.87-12.23-7.87a41.56,41.56,0,0,1-3-12.12v-.13a15.19,15.19,0,0,1,1.22-8.5,11.64,11.64,0,0,1,9.19-6.59l2.9-.44,36.65-4a30.85,30.85,0,0,1,3.29-.19c6.55,0,10.13,3.19,11.6,6.7a16.39,16.39,0,0,1,1.63,5.81,44.25,44.25,0,0,1-.59,13.87l-.26,1.24-.58,1.13a13.09,13.09,0,0,1-10.57,6.9l-1.13.09-.76.75-.33,0,3.08,22,0,.15c1,9.37-3,13-6.2,14.47-3.21,1.83-7.34,3-12.56,3.57l-.34,0A20.08,20.08,0,0,1,476.28,327.71Z"/><path class="cls-4" d="M495.54,260.41c1.85,0,2.82.38,2.9,1.14a6.32,6.32,0,0,1,.89,2.89,35,35,0,0,1-.44,10.9,3.67,3.67,0,0,1-3.14,1.77l-4.21.33v-.09l-.11.11-.45,0-6,.39-1.34.39,4.52,32.34q.51,4.74-1,4.9-3.06,2-9.37,2.67l-.34,0a11.34,11.34,0,0,1-1.25.07q-3.34,0-3.6-2.41l-.3-1.88-3.13-34.3-.48-.07-10.84,1.64h-.39c-2,0-3.12-.51-3.23-1.53a31.55,31.55,0,0,1-2.57-10v-.12c-.31-2.92.44-4.47,2.26-4.67l2.83-.43,36.45-3.92a19.76,19.76,0,0,1,2.27-.14m0-19a39.55,39.55,0,0,0-4.31.25l-36.45,3.92-.4,0-.41.06-2.61.39A21.28,21.28,0,0,0,435,258a24.86,24.86,0,0,0-2.11,13.65v.12a51.46,51.46,0,0,0,3.69,14.74A20.65,20.65,0,0,0,452,299.64l1.46,16,.06.65.1.64.25,1.58c1.52,11,10.64,18.69,22.41,18.69a30.88,30.88,0,0,0,3.28-.18l.35,0a41.92,41.92,0,0,0,15.83-4.52,20.61,20.61,0,0,0,11.12-14.68,30.12,30.12,0,0,0,.23-9.3l0-.3,0-.29-1.93-13.82A21.8,21.8,0,0,0,515.8,284l1.16-2.27.52-2.48a53.79,53.79,0,0,0,.74-16.84,25.86,25.86,0,0,0-2.72-9.28c-3-6.37-9.68-11.71-20-11.71Z"/><path class="cls-3" d="M532.9,321.61c-8,0-12.28-5.25-13-10.56l-.33-2-2.25-24.73-1.92.29h-1.23c-6.83,0-10.84-3.64-12.21-7.8a42.21,42.21,0,0,1-3-12.18v-.17a15.2,15.2,0,0,1,1.22-8.46,11.66,11.66,0,0,1,9.19-6.59l2.9-.44L548.88,245a30.72,30.72,0,0,1,3.28-.2c6.55,0,10.13,3.19,11.6,6.71a16.33,16.33,0,0,1,1.64,5.81,44.47,44.47,0,0,1-.59,13.86l-.26,1.25-.58,1.13a13.11,13.11,0,0,1-10.58,6.9l-1.12.09-.76.75-.33,0,3.08,22v.15c1,9.36-3,13-6.19,14.47a32.22,32.22,0,0,1-12.57,3.56l-.34,0A22.55,22.55,0,0,1,532.9,321.61Z"/><path class="cls-4" d="M552.16,254.3c1.86,0,2.83.39,2.91,1.15a6.32,6.32,0,0,1,.88,2.88,34.7,34.7,0,0,1-.44,10.9,3.64,3.64,0,0,1-3.14,1.78l-4.21.33v-.1l-.11.11-.45-.05-5.94.4-1.35.39,4.53,32.34q.51,4.74-1,4.89-3.06,2-9.37,2.68l-.34,0c-.45,0-.86.07-1.25.07q-3.33,0-3.6-2.41l-.3-1.88-3.12-34.3-.48-.07-10.85,1.64h-.38c-2,0-3.13-.51-3.24-1.52a31.37,31.37,0,0,1-2.56-10l0-.13q-.47-4.36,2.26-4.66l2.83-.43,36.45-3.93a22.49,22.49,0,0,1,2.27-.14m0-19a41.88,41.88,0,0,0-4.3.25l-36.45,3.93-.41,0-.4.07L508,240c-10.52,1.43-20.13,10.53-18.52,25.52l0,.13a51.15,51.15,0,0,0,3.68,14.73,20.64,20.64,0,0,0,15.46,13.17l1.46,16,.06.64.1.65.26,1.58c1.51,11,10.63,18.69,22.4,18.69a30.74,30.74,0,0,0,3.28-.18l.35,0a41.69,41.69,0,0,0,15.83-4.53,20.56,20.56,0,0,0,11.13-14.68,30.67,30.67,0,0,0,.23-9.29l0-.3-.05-.3L561.71,288a21.86,21.86,0,0,0,10.72-10.09l1.15-2.27.53-2.49a54,54,0,0,0,.73-16.83,25.93,25.93,0,0,0-2.71-9.28c-3-6.37-9.68-11.72-20-11.72Z"/><path class="cls-3" d="M571.43,316.28l-.85,0-.83-.17c-2.63-.53-8.87-2.82-9.92-12.61l-.83-7.66-.14-3.16-.26-2.37-.89-.72.37-4.12-.3-2.8.09-.1,0-.31c-1.53-14.2-2.14-23.12-1.92-28.06l.06-1.31.41-1.25c1.53-4.61,5.44-7.46,11.65-8.49l.79-.36,2.65-.07,4.6-.58A17.54,17.54,0,0,1,578,242c6.53,0,11.6,4.25,12.53,10.4.35,1.83,1,6.28,2.69,20.19l.74,5c2.82-.5,5.21-.85,7.22-1.07.5-.05,1-.08,1.49-.08a11.73,11.73,0,0,1,10.79,6.66l.16.33.13.34a51.45,51.45,0,0,1,2.86,12.38l.4.33,0,4.34.49,8.58-3.61.37a11.84,11.84,0,0,1-7.51,3.78l-.82.08c-24.93,2.34-31.07,2.61-33.53,2.61Z"/><path class="cls-4" d="M578,251.51c1.93,0,3,.83,3.17,2.5q.24.74,2.63,19.87l2.17,14.57c.12.24.23.36.32.36h0q10.44-2.22,15.88-2.8l.48,0a2.3,2.3,0,0,1,2.25,1.32A46.82,46.82,0,0,1,607.33,299l.12,2h-.1l.11.09c0,1.92-.73,3-2.15,3.11l-.69.08q-27.36,2.56-32.64,2.56h-.35c-1.29-.26-2.07-1.7-2.36-4.32l-.79-7.36-.14-3.16-.69-6.38.09-.11-.11-.09,0-.5-.39-3.64q-2.16-20.1-1.87-26.61c.38-1.17,2.16-1.92,5.32-2.26l.28-.13,1.19,0,4.9-.63c.3,0,.6-.05.87-.05m0-19a28.85,28.85,0,0,0-2.91.16l-.19,0-.19,0-3.92.5h-.21l-3.9.1-1.51.69c-12,2.47-16.25,10.06-17.77,14.62l-.83,2.5-.11,2.63c-.15,3.19-.12,9.32,1.58,25.89l-.09.12.62,5.75-.75,8.25,1.67,1.35,0,.83,0,.6.06.59.79,7.36c1.42,13.1,10,19.39,17.5,20.91l1.66.33,1.69,0H572c2.87,0,9.37-.3,34.42-2.65h.26l.69-.08a21,21,0,0,0,10.48-4.11l9.62-1-1-17.27,0-8.64-1.07-.87a54.76,54.76,0,0,0-2.87-10.78l-.27-.68L622,279a21.3,21.3,0,0,0-19.33-12h-.58c-1.29-10.31-1.84-14.39-2.24-16.49-1.83-10.51-10.8-18-21.85-18Z"/><path class="cls-3" d="M618.86,311.14c-5.68,0-8.71-2.06-10.33-4.28a15.51,15.51,0,0,1-3.18-8.36l0-.24c-.55-6.73-1.12-13-1.7-18.64l-.36-.19-.21-5.19-.37-3.46.11-.14c-.55-6.21-.91-10.91-1.08-14.32-.1-2.16-.13-3.8-.09-5a12.68,12.68,0,0,1,1.28-5.38,11,11,0,0,1,7.43-6.1c2-.56,7.84-1.66,38.66-5.56l2.51-.35h.14a18.52,18.52,0,0,1,2.17-.13,11.22,11.22,0,0,1,9.35,4.26,15.84,15.84,0,0,1,3.13,8.38,31,31,0,0,1-.86,12.87,10.59,10.59,0,0,1-4.74,6.05,14,14,0,0,1,.48,2.47l.05.47.67,5.46a12.83,12.83,0,0,1,.05,2.14,9.69,9.69,0,0,1,3.79,3.27,18,18,0,0,1,3.61,8.61,34.46,34.46,0,0,1,.86,4.83v.12c.94,8.68-3.41,12.4-6.08,13.85l-.89.48-1,.28a23,23,0,0,1-3.88.77L623.23,311C621.49,311.08,620.06,311.14,618.86,311.14Z"/><path class="cls-4" d="M653.82,243.27q1.45,0,1.83.57a6.81,6.81,0,0,1,1.21,3.59v.08a22,22,0,0,1-.5,8.94c-.24.86-1.55,1.41-3.92,1.67l-1.69.25L631,260v.05l.84,6.41.15.46q14.25-1.38,16.72-1.37c.34,0,.52,0,.52.06a3.36,3.36,0,0,1,2.48,3.18l.06.54.65,5.39a2.13,2.13,0,0,1-1.86,2.54q0,.29-16.74,2.3l1.19,7.1,17.48-2.36a31.41,31.41,0,0,1,3.32-.22c1.41,0,2.14.2,2.18.6a8.67,8.67,0,0,1,2,4.87,25.38,25.38,0,0,1,.76,4.07v.07q.39,3.63-1.16,4.47a12.69,12.69,0,0,1-2.24.44l-34.8,2.86q-2.25.15-3.72.15c-1.76,0-2.66-.17-2.7-.5-.71-.61-1.16-1.82-1.36-3.66q-1-12.6-2.12-22.66l-.12-1.16.06-.08-.08,0,0-.92q-2.06-22.32-1.1-22.42a1.5,1.5,0,0,1,1.26-1.16q2.88-1,37.57-5.36l2.42-.34c.43,0,.81-.07,1.15-.07m0-19a29.66,29.66,0,0,0-3.19.18l-.28,0-.29,0-2.31.32c-30.47,3.85-37.1,5-39.86,5.8a20.26,20.26,0,0,0-12.8,9.73,21.8,21.8,0,0,0-3,10.58c-.06,1.52,0,3.37.1,5.84.13,2.77.39,6.35.76,10.84l-.18.23.75,6.95.27,10.42.84.44c.4,4.18.8,8.65,1.18,13.37l0,.24,0,.24a24.24,24.24,0,0,0,6,14.26,20.1,20.1,0,0,0,11.42,6.41,29.15,29.15,0,0,0,5.49.45c1.43,0,3.07-.06,5-.2h.26l34.8-2.85.24,0,.24,0a32,32,0,0,0,5.51-1.09l2-.56,1.78-1c3-1.62,12.64-8.08,11-23.22v-.07a45.82,45.82,0,0,0-1-5.76,27.79,27.79,0,0,0-5.18-12.21,19.38,19.38,0,0,0-2.37-2.78l-.24-2a20.69,20.69,0,0,0,3.53-6.48h0a39.82,39.82,0,0,0,1.35-16.93v-.06a25.49,25.49,0,0,0-5-13.07,20.81,20.81,0,0,0-17-8.07Z"/><path class="cls-3" d="M432.58,283.63a18.08,18.08,0,0,1-1.93-36c.65-.06,1.3-.1,2-.1a18.08,18.08,0,0,1,0,36.15Z"/><path class="cls-4" d="M432.6,257a8.58,8.58,0,0,1,.91,17.1c-.31,0-.62.05-.93.05a8.58,8.58,0,0,1-.91-17.1c.31,0,.62,0,.93,0m0-19h0a26.74,26.74,0,0,0-3,.16,27.57,27.57,0,0,0,2.95,55,29.71,29.71,0,0,0,3-.16,27.58,27.58,0,0,0-2.95-55Z"/></g><g id="Heartstroke-2" data-name="Heartstroke"><path class="cls-3" d="M306.44,384.25c-2.15-.23-52.85-5.87-81.93-19.45-26.08-12.18-54-28.28-55.14-65.35a61.11,61.11,0,0,1,16.8-44.27c8.3-8.55,23.35-18.75,48-18.75a94.17,94.17,0,0,1,9.93.54,64.82,64.82,0,0,1,29.22-27.63c10.71-5,21.32-7.59,31.55-7.59,18.87,0,35.66,8.87,47.26,25,14.27,19.78,15.43,47.57,3.45,82.58a366.93,366.93,0,0,1-18.73,45.58c-5.64,11.29-11.16,19.92-11.39,20.29l-6.68,10.43Z"/><path class="cls-4" d="M304.85,221.75c12,0,22.83,5.27,31,16.65,13.2,18.32,7.22,45.48.74,64.42a345.64,345.64,0,0,1-17.69,43.11c-5.23,10.46-10.34,18.44-10.34,18.44S259.39,359,233,346.68s-42.86-23.55-43.61-47.85c-.61-20.09,13-42.4,44.79-42.4a88.13,88.13,0,0,1,22.37,3.16s4.36-22.31,25.29-32.15c7.93-3.73,15.71-5.69,23-5.69m0-40c-13.19,0-26.67,3.2-40.06,9.49a84,84,0,0,0-31.06,25.19c-31.38.12-51,13.56-61.91,24.83a81.17,81.17,0,0,0-22.44,58.8c.68,21.89,8.79,40.63,24.12,55.7,12.4,12.2,27.78,20.26,42.55,27.16,31.51,14.71,82.51,20.59,88.22,21.21l24.64,2.69L342.28,386c.64-1,6.43-10.11,12.44-22.13a387.89,387.89,0,0,0,19.76-48.05c5.36-15.67,8.33-29.77,9.1-43.11,1.28-22.45-3.85-41.84-15.25-57.65-15.46-21.45-38-33.26-63.48-33.26Z"/></g><g id="Heart"><path class="cls-5" d="M206.29,337.71c-15.58-14.33-16.93-26.92-15.8-42.86s19.06-33.27,33.76-38,36.1.63,36.1.63c10.65-37.1,51-38.88,62.33-34s28.41,11.22,30.46,47.1S316.23,374,316.23,374C242.19,363.87,221.88,352,206.29,337.71ZM323,381s34.64-57.19,38.19-93.26S357.13,229.06,323,218s-63,25.71-65.91,32c0,0-32.46-5.73-52.76,14.58S188,307.43,191,318s10.34,20.81,23.93,31.4S269.73,375.71,323,381Z"/><path class="cls-4" d="M205.5,319.8l6.91-40.75,17-1.52-.31,2.43a17,17,0,0,1,12.71-5.67c8.22,0,9.72,6.73,9.72,6.73s4.79-9.54,14.2-9.54,12.46,6,12.46,14.39-1.93,12.84-1.25,15.45,6-2.24,8.35-11.52a169.31,169.31,0,0,0,3.55-20.37l17.57-2s-2.31,12.15-3.61,21.68.12,8.41.81,8.79,5.79-2.43,8-14.33,2.43-17,2.43-17l17.38-2s-4.48,39.06-8.41,53.73-20.32,16.77-25.23,17.19a12.49,12.49,0,0,1-11.77-5.74c-2.52-3.93-4.49-10.09.05-13.83s9.2-1.08,10.55,1.63,3.7,8.41-1.91,12.24c0,0,6.4.85,9.16-6.21s4.53-17.47,4.44-20.14c0,0-5.8,6.64-12.81,6.64s-9.43-7.24-9.43-7.24c-.36-.18-3.87,9.63-13.09,10-9.85.34-13.08-1.83-14.2-8.18s1.54-16.87,1.68-19.11.38-4.81-3.36-3.41-6.26,19-6.87,23.13-1.22,9.34-1.22,9.34l-18.26,2.06s3.59-21.4,3.83-22.94,1.4-7.1.09-8.79-5.33.75-7.1,7.62S223,317.74,223,317.74Z"/></g><path class="cls-5" d="M738,290.83s11.12-1.78,16.54,7.75,26.91,103.54,26.91,103.54l1.31-40.18-10.65-43.17s-2.62-20.56-13.46-26A28.47,28.47,0,0,0,738,290.83Z"/><path class="cls-5" d="M830.75,285.87s18.13-3.45,24.58,4.58,6.35,13.83,4.11,30.93-15.6,114.75-51.86,192.87S718.12,608.57,688.47,616.8s-71.71,1.18-95.25-3.31-88-22.42-118.68-22-46.91,11.77-59.06,32.89,9.72,31,12.9,33.46,27.85,4.48,27.85,4.48l-12.15,3.37s-26.17,3.36-38.5-18.51,3.55-49.34,29.9-59.8,69.52-2.8,107.65,6.91,110.7,30,166.77,3.62,81.23-68.28,102.91-132.2,36.82-157.36,36.63-165S843.46,284.38,830.75,285.87Z"/><path class="cls-5" d="M442.77,600.5s21.77-4.76,36.35,10,18.78,54-8.32,78.5S394.36,718.15,362,698.15s-39.43-46.34-41.11-55.5c0,0,5.6,25.42,25,39.06s26,14.95,40.18,17.57,34.95,4.29,61.11-9.54,30.47-40,31.22-51.39-7.29-29.9-15.14-33.08S442.77,600.5,442.77,600.5Z"/><path class="cls-3" d="M178.14,409.44q28.59-17.7,44.42-19.8,24.6-7.51,41.6-2.45,29.93,11.4,49.12,42.42l3,4.78q21.38,34.55,3.13,65.12Q313.1,508.81,295,520l-19.08,10.51q-7.76,4.8-3.83,11.14l1.37,2.73,8.44,12.77q5.63,9.08,3.3,15-3.27,6.79-22,28.48-5.21,7-8.64,9.14l-.79.49q-5.56,3.45-14.44-7.75-8.22-8-30.57-44.14l-50.67-77.86-2.57-4.15Q138.58,449,142.56,438.61q1.73-7.89,23-21.08Zm108.57,46q-8.19.94-11.95,3.28l-1.41.87q-7,4.32-5.06,13.53l1.12,2.34.24.39q7.62,12.3,37.63,7.92l1-.63q2.68-2.83,4-18.32,0-14.12-4.47-21.4-5-8.07-13.92-2.54l-1.18.73Q285.41,446.21,286.71,455.48ZM338.32,356l3-.39,12.26-2.87q9.36-2,10.88,5.16.84,1.81,11.88,49.74l9.29,36.39c.39.61.71.88.95.83q25.91-8.36,39.58-11.26,5-1.06,7.24,2.58,5.25,10.08,9.25,28.93l.81,5-.25.05.3.19q.72,7.32-4.64,8.46l-1.72.37q-71.28,14.15-83.05,15.1-5-.48-7.1-10.33l-3.93-18.48-1.18-8-3.41-16,.19-.3-.3-.19v-1.28l-1.95-9.12q-10.73-50.43-11.69-67,1-4.59,12.9-7.12Zm162.05-24.35,1.26-.14c2.12-.24,6.32.25,12.57,1.45q8.09-3.74,11.65-4.13l1.25-.14q6.2-.69,9.34,6,10.08,16.11,33.7,59.55l28.75,52.51a22.82,22.82,0,0,1,1.92,5.93v.13q.39,3.5-7.68,7.31-4.93,2.31-18,5.29l-4.44.49q-7.81-.15-7.95-1.4-4.73-3.79-17-29.74l-7-14.36-13.22,11-.38,0-15.81-7.81-.19,0q-7.5,33.51-12,45.29c-1.36,2.93-2.88,4.5-4.55,4.68a14.59,14.59,0,0,1-4.72,1.41l-2.5.28q-6,.66-19.59-.69-9.81-2.15-10.21-5.77v-.13q-.56-5,8-31,16.92-61.17,29.15-98.95,2.22-5.76,4.34-6C497,332.56,498.11,332.18,500.37,331.68Zm-.65,55.88.08.75q.72,6.57,15.94,16.35,6.51,4,7.46,3.87a103.84,103.84,0,0,0,14.85-12.92q4.58-5.58,4-10.77l-.17-1.5q-.63-5.76-7.82-7.12a15.45,15.45,0,0,0-4.31-.09l-.76.08a14.41,14.41,0,0,0-8.51,4.36l-.19,0q-6.64-2.8-11.09-2.32a11.78,11.78,0,0,0-8.91,5.93A7,7,0,0,0,499.72,387.56Zm78.81-65.76,93-10q12.76-1.37,13.19,2.57a16,16,0,0,1,2.25,7.36,88.58,88.58,0,0,1-1.13,27.8q-2,3.89-8,4.53l-10.74.84,0-.25-.29.28-1.15-.12-15.15,1-3.44,1,11.53,82.47q1.31,12.09-2.45,12.49-7.82,5.08-23.9,6.82l-.88.09q-11.58,1.24-12.36-5.95l-.77-4.79-8-87.49-1.22-.19-27.67,4.18q-8.77.26-9.22-3.88-4.92-10.49-6.54-25.45l0-.31q-1.2-11.15,5.75-11.9ZM449.85,651.06s-5.07,17.32-29,12.33S385,625.83,401.61,602.28s46-31.21,80.92-26.54,84.85,16.82,96.81,19.06,68,13.27,112.13-.93S769.22,549,792.39,493.51s33-107.93,34.67-115,12.8-70.83,13.36-75.22.56-10.47-2.33-14-3.27-3.08-11.59-3S796.32,288,796.32,288s-4.67.56-6.08,2.43-3.17,3.83-3.73,11.59-5.58,83.14-8.07,94.35-4,5.86-5.36,1.74-22.43-90.08-23.3-94.56-5.6-13.09-12.83-13.33-41.24,3.61-41.24,3.61-7.73,1.12-6.85,10,5.35,16.57,8.09,25.41,30.53,82.61,33.64,92.45,13.71,36.76,14.71,44,2.11,17.94-4.74,28.54-25.35,54.44-84,69S525,549.2,493,534.44s-83.72-30.46-121.1-12a100.33,100.33,0,0,0-56.25,89.71c0,34.57,16.82,56.25,34.2,67.65s58.49,24.48,97,0,24.86-78.68-3.17-79.24-34.77,15.14-33.83,27.1,4.67,16.38,9.78,20,13.7,6,19.56,5.74S446.58,652.55,449.85,651.06Z"/><g id="Little-2" data-name="Little"><path class="cls-3" d="M381.85,272.6l1.19,0,4.9-.62c2.49-.27,3.83.54,4,2.44q.25.75,2.64,19.88l2.16,14.57c.13.25.24.37.34.36Q407.56,307,413,306.39a2.43,2.43,0,0,1,2.72,1.3,46.66,46.66,0,0,1,2.45,11.65l.11,2h-.1l.11.09c0,1.92-.72,2.95-2.15,3.11l-.69.07q-28.36,2.67-33,2.57c-1.29-.26-2.07-1.7-2.36-4.32l-.79-7.36-.14-3.17-.69-6.38.09-.11-.11-.09,0-.5-.4-3.63Q376,281.51,376.25,275c.39-1.16,2.16-1.92,5.32-2.26Z"/><path class="cls-3" d="M430.75,284l3.2-.27,4-.51q3.76-.4,4,1.48.3.85,2.65,17.89,1.66,9,2,12.29l.17,1.59c.21,1.95-.09,3.11-.92,3.46Q444,321,438.57,322l-3.67.54-1.17.12q-3.62.39-4.79-.67a6,6,0,0,1-.62-2q-2.38-26-2.56-32.94Q425.51,284.55,430.75,284Z"/><path class="cls-3" d="M456.82,264.47l36.45-3.92q5-.54,5.17,1a6.32,6.32,0,0,1,.89,2.89,35,35,0,0,1-.44,10.9,3.67,3.67,0,0,1-3.14,1.77l-4.21.33v-.09l-.11.11-.45,0-6,.39-1.34.39,4.52,32.34q.51,4.74-1,4.9-3.06,2-9.37,2.67l-.34,0c-3,.32-4.65-.45-4.85-2.34l-.3-1.88-3.13-34.3-.48-.07-10.84,1.64c-2.3.07-3.5-.44-3.62-1.52a31.55,31.55,0,0,1-2.57-10v-.12c-.31-2.92.44-4.47,2.26-4.67Z"/><path class="cls-3" d="M513.44,258.37l36.45-3.93q5-.54,5.18,1a6.32,6.32,0,0,1,.88,2.88,34.7,34.7,0,0,1-.44,10.9,3.64,3.64,0,0,1-3.14,1.78l-4.21.33v-.1l-.11.11-.45-.05-5.94.4-1.35.39,4.53,32.34q.51,4.74-1,4.89-3.06,2-9.37,2.68l-.34,0c-3,.33-4.64-.45-4.85-2.33l-.3-1.88-3.12-34.3-.48-.07-10.85,1.64c-2.29.06-3.5-.44-3.62-1.52a31.37,31.37,0,0,1-2.56-10l0-.13q-.47-4.36,2.26-4.66Z"/><path class="cls-3" d="M571,252.22l1.19,0,4.9-.63q3.72-.41,4,2.45.24.74,2.63,19.87l2.17,14.57c.13.25.24.37.34.36q10.44-2.22,15.88-2.8a2.43,2.43,0,0,1,2.73,1.29A46.82,46.82,0,0,1,607.33,299l.12,2h-.1l.11.09c0,1.92-.73,3-2.15,3.11l-.69.08q-28.36,2.65-33,2.56c-1.29-.26-2.07-1.7-2.36-4.32l-.79-7.36-.14-3.16-.69-6.38.09-.11-.11-.09,0-.5-.39-3.64q-2.16-20.1-1.87-26.61c.38-1.17,2.16-1.92,5.32-2.26Z"/><path class="cls-3" d="M652.67,243.34c1.65-.18,2.64,0,3,.5a6.81,6.81,0,0,1,1.21,3.59v.08a22,22,0,0,1-.5,8.94c-.24.86-1.55,1.41-3.92,1.67l-1.69.25L631,260v.05l.84,6.41.15.46q17.21-1.67,17.24-1.31a3.36,3.36,0,0,1,2.48,3.18l.06.54.65,5.39a2.13,2.13,0,0,1-1.86,2.54q0,.29-16.74,2.3l1.19,7.1,17.48-2.36q5.4-.58,5.5.38a8.67,8.67,0,0,1,2,4.87,25.38,25.38,0,0,1,.76,4.07v.07q.39,3.63-1.16,4.47a12.69,12.69,0,0,1-2.24.44l-34.8,2.86q-6.33.43-6.42-.35c-.71-.61-1.16-1.82-1.36-3.66q-1-12.6-2.12-22.66l-.12-1.16.06-.08-.08,0,0-.92q-2.06-22.32-1.1-22.42a1.5,1.5,0,0,1,1.26-1.16q2.88-1,37.57-5.36Z"/><circle class="cls-3" cx="432.59" cy="265.55" r="8.57"/></g><polygon class="cls-3" points="677.04 681.58 671.79 693.72 556.98 699.55 540.18 693.72 549.97 663.14 615.45 671.62 677.04 681.58"/><path class="cls-4" d="M756.14,271.76l6,3.37s14.3-9.53,20.19-10-5.7,20-5.7,20l-17,6.44Z"/><path class="cls-4" d="M698.61,275.41A388.77,388.77,0,0,1,740.1,272c22.8-.65-40.46,16.17-40.46,16.17Z"/></svg>