<?xml version="1.0" encoding="utf-8"?>
<!-- Generator: Adobe Illustrator 24.1.2, SVG Export Plug-In . SVG Version: 6.00 Build 0)  -->
<svg version="1.1" id="Calque_1" xmlns="http://www.w3.org/2000/svg" xmlns:xlink="http://www.w3.org/1999/xlink" x="0px" y="0px"
	 viewBox="0 0 1000 1000" style="enable-background:new 0 0 1000 1000;" xml:space="preserve">
<style type="text/css">
	.st0{fill:#FFFFFF;}
</style>
<g>
	<g id="Calque_6_1_">
		<path class="st0" d="M851.04,472.62c-2.56,1.61-5.11,3.21-7.76,4.82l-0.5,0.31c-2.56,1.59-5.18,3.17-7.8,4.77l-0.54,0.32
			c-2.66,1.61-5.36,3.22-8.07,4.83l-0.17,0.1c-5.6,3.32-11.3,6.66-17.11,10l-0.18,0.1c-2.8,1.61-5.61,3.22-8.46,4.83l-0.66,0.37
			l-8.41,4.72l-0.77,0.42c-2.85,1.6-5.72,3.19-8.63,4.77l-0.46,0.26c-6.04,3.3-12.17,6.61-18.4,9.92l-0.22,0.12l-9.08,4.78
			l-0.84,0.43l-8.95,4.64l-1.04,0.52l-9.08,4.64l-0.82,0.42l-9.51,4.78h-0.09l-9.83,4.99l-0.31,0.15l-9.59,4.68l-1.05,0.51
			l-9.36,4.5l-1.34,0.63c-3.12,1.5-6.25,2.99-9.4,4.46l-1.28,0.58l-9.77,4.56l-0.6,0.27l-10.13,4.67l-0.33,0.14
			c-3.34,1.53-6.69,3.04-10.05,4.55l-1.28,0.56c-3.22,1.46-6.47,2.91-9.73,4.35l-1.59,0.7l-9.76,4.28l-1.52,0.66l-10.05,4.35
			l-1.01,0.42c-3.48,1.49-6.98,2.98-10.5,4.48l-0.22,0.09c-3.49,1.48-7.01,2.95-10.52,4.42l-1.36,0.56l-10.14,4.18l-1.74,0.72
			c-3.36,1.38-6.73,2.75-10.11,4.1l-1.71,0.7l-10.37,4.14l-1.28,0.5l-11.01,4.33c-4.35,1.7-8.69,3.38-13.03,5.04l0,0
			c-13.04,5.01-26,9.85-38.88,14.53l0,0l96,178.5l0,0c0,0,211.19-35.8,276.19-357.23c-5.11,3.3-10.23,6.61-15.56,9.94L851.04,472.62
			z"/>
		<path class="st0" d="M605.04,597.66c3.52-1.48,7.02-2.97,10.5-4.48C612.06,594.68,608.56,596.17,605.04,597.66z"/>
		<path class="st0" d="M834.98,482.21c2.56-1.6,5.23-3.18,7.8-4.77C840.25,479.03,837.6,480.61,834.98,482.21z"/>
		<path class="st0" d="M843.28,477.13c2.56-1.61,5.2-3.21,7.76-4.82C848.48,473.92,845.88,475.52,843.28,477.13z"/>
		<path class="st0" d="M616.55,592.76l10.05-4.35L616.55,592.76z"/>
		<path class="st0" d="M494.64,641.01c12.86-4.68,25.82-9.52,38.88-14.53C520.48,631.49,507.52,636.33,494.64,641.01z"/>
		<path class="st0" d="M594.3,602.17c3.52-1.47,7.03-2.94,10.52-4.42C601.33,599.23,597.81,600.7,594.3,602.17z"/>
		<path class="st0" d="M570.95,611.74c3.39-1.36,6.75-2.72,10.11-4.1C577.7,609.01,574.29,610.38,570.95,611.74z"/>
		<path class="st0" d="M851.22,472.21c5.29-3.32,10.5-6.64,15.56-9.94l0,0C861.71,465.58,856.51,468.91,851.22,472.21z"/>
		<path class="st0" d="M558.87,616.58l10.37-4.14L558.87,616.58z"/>
		<path class="st0" d="M533.59,626.46c4.33-1.7,8.67-3.38,13.03-5.04C542.27,623.12,537.93,624.8,533.59,626.46z"/>
		<path class="st0" d="M628.12,587.75l9.76-4.28L628.12,587.75z"/>
		<path class="st0" d="M582.8,606.92l10.14-4.18L582.8,606.92z"/>
		<path class="st0" d="M546.62,621.42l11.01-4.33L546.62,621.42z"/>
		<path class="st0" d="M744.04,532.84l8.95-4.64L744.04,532.84z"/>
		<path class="st0" d="M713.66,548.19l9.9-4.91L713.66,548.19z"/>
		<path class="st0" d="M781.98,512.68c2.91-1.59,5.78-3.18,8.63-4.77C787.76,509.51,784.88,511.1,781.98,512.68z"/>
		<path class="st0" d="M723.59,543.2l9.51-4.78L723.59,543.2z"/>
		<path class="st0" d="M791.38,507.49l8.41-4.72L791.38,507.49z"/>
		<path class="st0" d="M763.12,522.86c6.22-3.31,12.36-6.61,18.4-9.92C775.49,516.24,769.36,519.54,763.12,522.86z"/>
		<path class="st0" d="M733.93,537.96l9.08-4.64L733.93,537.96z"/>
		<path class="st0" d="M703.71,552.98l9.59-4.68L703.71,552.98z"/>
		<path class="st0" d="M753.82,527.73l9.08-4.78L753.82,527.73z"/>
		<path class="st0" d="M693.3,558l9.36-4.5L693.3,558z"/>
		<path class="st0" d="M650.44,577.85c3.37-1.51,6.72-3.03,10.05-4.55C657.15,574.83,653.8,576.34,650.44,577.85z"/>
		<path class="st0" d="M639.5,582.71c3.26-1.44,6.5-2.89,9.73-4.35C645.98,579.86,642.74,581.31,639.5,582.71z"/>
		<path class="st0" d="M809.1,497.46c5.81-3.33,11.51-6.67,17.11-10C820.61,490.79,814.9,494.12,809.1,497.46z"/>
		<path class="st0" d="M826.37,487.36c2.71-1.61,5.41-3.22,8.07-4.83C831.78,484.14,829.08,485.75,826.37,487.36z"/>
		<path class="st0" d="M660.83,573.16l10.13-4.67L660.83,573.16z"/>
		<path class="st0" d="M800.45,502.4c2.85-1.61,5.66-3.22,8.46-4.83C806.12,499.18,803.31,500.79,800.45,502.4z"/>
		<path class="st0" d="M682.56,563.09c3.15-1.48,6.28-2.97,9.4-4.46C688.84,560.12,685.71,561.61,682.56,563.09z"/>
		<path class="st0" d="M671.55,568.23l9.77-4.56L671.55,568.23z"/>
		<path class="st0" d="M297.15,701.69c-3.86,0.96-7.7,1.9-11.51,2.8l-0.49,0.12c-3.71,0.85-7.4,1.7-11.07,2.56l-0.68,0.15
			c-3.61,0.85-7.19,1.66-10.77,2.43l-0.77,0.17c-3.53,0.78-7.04,1.54-10.54,2.29l-0.78,0.17c-3.51,0.74-6.99,1.47-10.45,2.17
			l-0.65,0.13c-3.51,0.72-7,1.41-10.47,2.08l-0.43,0.08c-3.59,0.7-7.15,1.37-10.69,2.02l0,0c-3.58,0.66-7.13,1.28-10.65,1.91
			c30.51,86.59,67.77,148.18,70.93,149.79c-8.13-45.26-13.25-91.01-15.34-136.94c56.13,60.08,186.47,174.05,389.75,206.25
			c0,0-217.09-42.43-255.73-265.96c-34.45,10.65-67.77,19.92-99.48,27.75L297.15,701.69z"/>
		<path class="st0" d="M229.05,716.79c3.47-0.67,6.96-1.37,10.47-2.08C235.95,715.42,232.46,716.12,229.05,716.79z"/>
		<path class="st0" d="M207.21,720.81L207.21,720.81c3.52-0.61,7.07-1.28,10.65-1.91C214.28,719.53,210.73,720.18,207.21,720.81z"/>
		<path class="st0" d="M217.86,718.89c3.54-0.65,7.1-1.28,10.69-2.02C224.96,717.57,221.38,718.25,217.86,718.89z"/>
		<path class="st0" d="M297.33,701.63c31.72-7.83,65.03-17.1,99.48-27.75l0,0C362.36,684.56,329.05,693.81,297.33,701.63z"/>
		<path class="st0" d="M262.64,709.78c3.57-0.79,7.16-1.6,10.77-2.43C269.8,708.19,266.21,709,262.64,709.78z"/>
		<path class="st0" d="M285.64,704.49c3.81-0.91,7.65-1.85,11.51-2.8C293.29,702.65,289.45,703.59,285.64,704.49z"/>
		<path class="st0" d="M251.34,712.24c3.49-0.74,7.01-1.5,10.54-2.29C258.34,710.74,254.83,711.5,251.34,712.24z"/>
		<path class="st0" d="M274.08,707.2c3.67-0.85,7.36-1.7,11.07-2.56C281.45,705.51,277.76,706.36,274.08,707.2z"/>
		<path class="st0" d="M240.11,714.58c3.45-0.7,6.93-1.42,10.45-2.17C247.05,713.15,243.56,713.87,240.11,714.58z"/>
	</g>
	<path class="st0" d="M453.06,379.89c264.75-101.12,497.96-134.41,520.9-74.34c22.94,60.06-173.08,190.73-437.82,291.85
		S38.17,731.81,15.23,671.74S188.31,481.02,453.06,379.89z M69.62,615.47c16.41,42.95,215.43,6.84,444.52-80.67
		s401.52-193.26,385.11-236.21c-16.41-42.95-215.43-6.84-444.52,80.67S53.21,572.52,69.62,615.47z"/>
	<g id="Calque_5_1_">
		<path class="st0" d="M511.07,378.23L407.69,178.66l-0.63,0.09c0,0-226.6,38.41-282.57,392.95
			c44.46-42.57,174.68-111.33,334.42-173.74C476.55,391.08,493.94,384.5,511.07,378.23z"/>
		<path class="st0" d="M511.1,378.28L511.1,378.28c-17.12,6.27-34.5,12.84-52.16,19.73C299.17,460.37,168.95,529.14,124.5,571.7l0,0
			C221.63,494.49,401.75,421.08,511.1,378.28z"/>
		<path class="st0" d="M722.78,128.61c8.28,46.21,13.43,92.92,15.42,139.82C683.64,209.35,552.4,92.07,345.82,59.35
			c0,0,102.5,26.85,178.68,118.63c35.61,42.87,66.17,96.58,77.73,168.96c83.11-26.51,153.44-43.13,198.73-47.08
			C769.43,202.15,726.23,130.35,722.78,128.61z"/>
		<path class="st0" d="M800.38,299.9L800.38,299.9c-45.26,3.95-115.67,20.57-198.73,47.08v0.06
			C676.66,324.72,737,308.21,800.38,299.9z"/>
		<g id="SN_BaseW_CStrokes_1_">
			<path class="st0" d="M817.11,357.31c-30.06-125.76-90.23-226.64-94.34-228.7c8.28,46.21,13.43,92.92,15.42,139.82
				C683.64,209.35,552.4,92.07,345.82,59.35c0,0,102.5,26.85,178.68,118.63c51.4,61.89,92.31,146.44,80.66,276.87"/>
		</g>
		<g id="SN_BaseW_CStrokes-2_1_">
			<path class="st0" d="M120.37,600.8c47.59-382.15,286.76-422.71,286.76-422.71l0.63-0.09L559.4,470.81l-128.25,51.53l-25.11-46.7
				c-4.62,20.66-8.14,40.46-10.57,59.41l-220.12,65.49c-2.99-17.16-5.31-34.61-6.74-52.19c-8.82,18.3-16.9,36.25-24.01,52.71
				L120.37,600.8z"/>
		</g>
		<path class="st0" d="M458.91,397.96c-159.74,62.4-289.9,131.16-334.42,173.74c-1.93,12.22-3.63,24.8-5.11,37.76
			c5.24,1.71,12.21,2.65,20.77,2.81c8.11-19.18,17.77-40.99,28.53-63.29c1.7,20.39,4.47,40.68,8.3,60.77
			c51.58-6.71,128.24-26.43,216.5-56.16c2.61-26.01,6.82-51.83,12.61-77.32l33.03,61.38c21.25-7.67,42.94-15.81,65.07-24.42
			c21.77-8.52,42.95-17.12,63.52-25.79l-56.59-109.26C493.97,384.48,476.57,391.07,458.91,397.96z"/>
		<path class="st0" d="M602.21,346.95c5.86,36.62,6.83,78,1.11,125.15c94.31-41.56,170.79-82.89,213.78-114.8
			c-4.76-19.87-10.23-39.11-16.16-57.45C755.69,303.81,685.27,320.44,602.21,346.95z"/>
	</g>
</g>
</svg>
